G75*
%MOIN*%
%OFA0B0*%
%FSLAX25Y25*%
%IPPOS*%
%LPD*%
%AMOC8*
5,1,8,0,0,1.08239X$1,22.5*
%
%ADD10C,0.01400*%
%ADD11C,0.00800*%
D10*
X0043856Y0131700D02*
X0043856Y0137433D01*
X0040990Y0137433D01*
X0040990Y0136478D01*
X0038424Y0135522D02*
X0038424Y0133611D01*
X0038422Y0133525D01*
X0038416Y0133440D01*
X0038407Y0133354D01*
X0038393Y0133270D01*
X0038376Y0133186D01*
X0038355Y0133103D01*
X0038330Y0133020D01*
X0038302Y0132940D01*
X0038270Y0132860D01*
X0038235Y0132782D01*
X0038196Y0132705D01*
X0038153Y0132631D01*
X0038108Y0132558D01*
X0038059Y0132488D01*
X0038007Y0132420D01*
X0037952Y0132354D01*
X0037894Y0132290D01*
X0037834Y0132230D01*
X0037770Y0132172D01*
X0037704Y0132117D01*
X0037636Y0132065D01*
X0037566Y0132016D01*
X0037493Y0131971D01*
X0037419Y0131928D01*
X0037342Y0131889D01*
X0037264Y0131854D01*
X0037184Y0131822D01*
X0037104Y0131794D01*
X0037021Y0131769D01*
X0036938Y0131748D01*
X0036854Y0131731D01*
X0036770Y0131717D01*
X0036684Y0131708D01*
X0036599Y0131702D01*
X0036513Y0131700D01*
X0036427Y0131702D01*
X0036342Y0131708D01*
X0036256Y0131717D01*
X0036172Y0131731D01*
X0036088Y0131748D01*
X0036005Y0131769D01*
X0035922Y0131794D01*
X0035842Y0131822D01*
X0035762Y0131854D01*
X0035684Y0131889D01*
X0035607Y0131928D01*
X0035533Y0131971D01*
X0035460Y0132016D01*
X0035390Y0132065D01*
X0035322Y0132117D01*
X0035256Y0132172D01*
X0035192Y0132230D01*
X0035132Y0132290D01*
X0035074Y0132354D01*
X0035019Y0132420D01*
X0034967Y0132488D01*
X0034918Y0132558D01*
X0034873Y0132631D01*
X0034830Y0132705D01*
X0034791Y0132782D01*
X0034756Y0132860D01*
X0034724Y0132940D01*
X0034696Y0133020D01*
X0034671Y0133103D01*
X0034650Y0133186D01*
X0034633Y0133270D01*
X0034619Y0133354D01*
X0034610Y0133440D01*
X0034604Y0133525D01*
X0034602Y0133611D01*
X0034602Y0135522D01*
X0034604Y0135608D01*
X0034610Y0135693D01*
X0034619Y0135779D01*
X0034633Y0135863D01*
X0034650Y0135947D01*
X0034671Y0136030D01*
X0034696Y0136113D01*
X0034724Y0136193D01*
X0034756Y0136273D01*
X0034791Y0136351D01*
X0034830Y0136428D01*
X0034873Y0136502D01*
X0034918Y0136575D01*
X0034967Y0136645D01*
X0035019Y0136713D01*
X0035074Y0136779D01*
X0035132Y0136843D01*
X0035192Y0136903D01*
X0035256Y0136961D01*
X0035322Y0137016D01*
X0035390Y0137068D01*
X0035460Y0137117D01*
X0035533Y0137162D01*
X0035607Y0137205D01*
X0035684Y0137244D01*
X0035762Y0137279D01*
X0035842Y0137311D01*
X0035922Y0137339D01*
X0036005Y0137364D01*
X0036088Y0137385D01*
X0036172Y0137402D01*
X0036256Y0137416D01*
X0036342Y0137425D01*
X0036427Y0137431D01*
X0036513Y0137433D01*
X0036599Y0137431D01*
X0036684Y0137425D01*
X0036770Y0137416D01*
X0036854Y0137402D01*
X0036938Y0137385D01*
X0037021Y0137364D01*
X0037104Y0137339D01*
X0037184Y0137311D01*
X0037264Y0137279D01*
X0037342Y0137244D01*
X0037419Y0137205D01*
X0037493Y0137162D01*
X0037566Y0137117D01*
X0037636Y0137068D01*
X0037704Y0137016D01*
X0037770Y0136961D01*
X0037834Y0136903D01*
X0037894Y0136843D01*
X0037952Y0136779D01*
X0038007Y0136713D01*
X0038059Y0136645D01*
X0038108Y0136575D01*
X0038153Y0136502D01*
X0038196Y0136428D01*
X0038235Y0136351D01*
X0038270Y0136273D01*
X0038302Y0136193D01*
X0038330Y0136113D01*
X0038355Y0136030D01*
X0038376Y0135947D01*
X0038393Y0135863D01*
X0038407Y0135779D01*
X0038416Y0135693D01*
X0038422Y0135608D01*
X0038424Y0135522D01*
X0047199Y0137433D02*
X0050065Y0137433D01*
X0049110Y0140300D02*
X0049110Y0133133D01*
X0049108Y0133058D01*
X0049102Y0132983D01*
X0049092Y0132909D01*
X0049079Y0132835D01*
X0049061Y0132762D01*
X0049040Y0132690D01*
X0049015Y0132619D01*
X0048986Y0132550D01*
X0048954Y0132482D01*
X0048918Y0132417D01*
X0048879Y0132353D01*
X0048836Y0132291D01*
X0048791Y0132231D01*
X0048742Y0132174D01*
X0048690Y0132120D01*
X0048636Y0132068D01*
X0048579Y0132019D01*
X0048519Y0131974D01*
X0048457Y0131931D01*
X0048394Y0131892D01*
X0048328Y0131856D01*
X0048260Y0131824D01*
X0048191Y0131795D01*
X0048120Y0131770D01*
X0048048Y0131749D01*
X0047975Y0131731D01*
X0047901Y0131718D01*
X0047827Y0131708D01*
X0047752Y0131702D01*
X0047677Y0131700D01*
X0047199Y0131700D01*
X0052686Y0131700D02*
X0055075Y0131700D01*
X0055150Y0131702D01*
X0055225Y0131708D01*
X0055299Y0131718D01*
X0055373Y0131731D01*
X0055446Y0131749D01*
X0055518Y0131770D01*
X0055589Y0131795D01*
X0055658Y0131824D01*
X0055726Y0131856D01*
X0055792Y0131892D01*
X0055855Y0131931D01*
X0055917Y0131974D01*
X0055977Y0132019D01*
X0056034Y0132068D01*
X0056088Y0132120D01*
X0056140Y0132174D01*
X0056189Y0132231D01*
X0056234Y0132291D01*
X0056277Y0132353D01*
X0056316Y0132417D01*
X0056352Y0132482D01*
X0056384Y0132550D01*
X0056413Y0132619D01*
X0056438Y0132690D01*
X0056459Y0132762D01*
X0056477Y0132835D01*
X0056490Y0132909D01*
X0056500Y0132983D01*
X0056506Y0133058D01*
X0056508Y0133133D01*
X0056508Y0135522D01*
X0056508Y0134567D02*
X0052686Y0134567D01*
X0052686Y0135522D01*
X0052688Y0135608D01*
X0052694Y0135693D01*
X0052703Y0135779D01*
X0052717Y0135863D01*
X0052734Y0135947D01*
X0052755Y0136030D01*
X0052780Y0136113D01*
X0052808Y0136193D01*
X0052840Y0136273D01*
X0052875Y0136351D01*
X0052914Y0136428D01*
X0052957Y0136502D01*
X0053002Y0136575D01*
X0053051Y0136645D01*
X0053103Y0136713D01*
X0053158Y0136779D01*
X0053216Y0136843D01*
X0053276Y0136903D01*
X0053340Y0136961D01*
X0053406Y0137016D01*
X0053474Y0137068D01*
X0053544Y0137117D01*
X0053617Y0137162D01*
X0053691Y0137205D01*
X0053768Y0137244D01*
X0053846Y0137279D01*
X0053926Y0137311D01*
X0054006Y0137339D01*
X0054089Y0137364D01*
X0054172Y0137385D01*
X0054256Y0137402D01*
X0054340Y0137416D01*
X0054426Y0137425D01*
X0054511Y0137431D01*
X0054597Y0137433D01*
X0054683Y0137431D01*
X0054768Y0137425D01*
X0054854Y0137416D01*
X0054938Y0137402D01*
X0055022Y0137385D01*
X0055105Y0137364D01*
X0055188Y0137339D01*
X0055268Y0137311D01*
X0055348Y0137279D01*
X0055426Y0137244D01*
X0055503Y0137205D01*
X0055577Y0137162D01*
X0055650Y0137117D01*
X0055720Y0137068D01*
X0055788Y0137016D01*
X0055854Y0136961D01*
X0055918Y0136903D01*
X0055978Y0136843D01*
X0056036Y0136779D01*
X0056091Y0136713D01*
X0056143Y0136645D01*
X0056192Y0136575D01*
X0056237Y0136502D01*
X0056280Y0136428D01*
X0056319Y0136351D01*
X0056354Y0136273D01*
X0056386Y0136193D01*
X0056414Y0136113D01*
X0056439Y0136030D01*
X0056460Y0135947D01*
X0056477Y0135863D01*
X0056491Y0135779D01*
X0056500Y0135693D01*
X0056506Y0135608D01*
X0056508Y0135522D01*
X0059833Y0131700D02*
X0061744Y0135522D01*
X0062221Y0135522D02*
X0064610Y0135522D01*
X0062221Y0135522D02*
X0062125Y0135524D01*
X0062029Y0135530D01*
X0061933Y0135539D01*
X0061838Y0135553D01*
X0061743Y0135570D01*
X0061649Y0135591D01*
X0061556Y0135616D01*
X0061464Y0135645D01*
X0061374Y0135677D01*
X0061285Y0135713D01*
X0061197Y0135753D01*
X0061111Y0135796D01*
X0061026Y0135842D01*
X0060944Y0135892D01*
X0060864Y0135945D01*
X0060786Y0136001D01*
X0060710Y0136060D01*
X0060637Y0136123D01*
X0060566Y0136188D01*
X0060498Y0136256D01*
X0060433Y0136327D01*
X0060370Y0136400D01*
X0060311Y0136476D01*
X0060255Y0136554D01*
X0060202Y0136634D01*
X0060152Y0136717D01*
X0060106Y0136801D01*
X0060063Y0136887D01*
X0060023Y0136975D01*
X0059987Y0137064D01*
X0059955Y0137154D01*
X0059926Y0137246D01*
X0059901Y0137339D01*
X0059880Y0137433D01*
X0059863Y0137528D01*
X0059849Y0137623D01*
X0059840Y0137719D01*
X0059834Y0137815D01*
X0059832Y0137911D01*
X0059834Y0138007D01*
X0059840Y0138103D01*
X0059849Y0138199D01*
X0059863Y0138294D01*
X0059880Y0138389D01*
X0059901Y0138483D01*
X0059926Y0138576D01*
X0059955Y0138668D01*
X0059987Y0138758D01*
X0060023Y0138847D01*
X0060063Y0138935D01*
X0060106Y0139021D01*
X0060152Y0139106D01*
X0060202Y0139188D01*
X0060255Y0139268D01*
X0060311Y0139346D01*
X0060370Y0139422D01*
X0060433Y0139495D01*
X0060498Y0139566D01*
X0060566Y0139634D01*
X0060637Y0139699D01*
X0060710Y0139762D01*
X0060786Y0139821D01*
X0060864Y0139877D01*
X0060944Y0139930D01*
X0061027Y0139980D01*
X0061111Y0140026D01*
X0061197Y0140069D01*
X0061285Y0140109D01*
X0061374Y0140145D01*
X0061464Y0140177D01*
X0061556Y0140206D01*
X0061649Y0140231D01*
X0061743Y0140252D01*
X0061838Y0140269D01*
X0061933Y0140283D01*
X0062029Y0140292D01*
X0062125Y0140298D01*
X0062221Y0140300D01*
X0064610Y0140300D01*
X0064610Y0131700D01*
X0068648Y0131700D02*
X0068648Y0136478D01*
X0070082Y0136478D01*
X0073426Y0138389D02*
X0073424Y0138475D01*
X0073418Y0138560D01*
X0073409Y0138646D01*
X0073395Y0138730D01*
X0073378Y0138814D01*
X0073357Y0138897D01*
X0073332Y0138980D01*
X0073304Y0139060D01*
X0073272Y0139140D01*
X0073237Y0139218D01*
X0073198Y0139295D01*
X0073155Y0139369D01*
X0073110Y0139442D01*
X0073061Y0139512D01*
X0073009Y0139580D01*
X0072954Y0139646D01*
X0072896Y0139710D01*
X0072836Y0139770D01*
X0072772Y0139828D01*
X0072707Y0139883D01*
X0072638Y0139935D01*
X0072568Y0139984D01*
X0072495Y0140029D01*
X0072421Y0140072D01*
X0072344Y0140111D01*
X0072266Y0140146D01*
X0072186Y0140178D01*
X0072106Y0140206D01*
X0072023Y0140231D01*
X0071940Y0140252D01*
X0071856Y0140269D01*
X0071772Y0140283D01*
X0071686Y0140292D01*
X0071601Y0140298D01*
X0071515Y0140300D01*
X0068648Y0140300D01*
X0073426Y0138389D02*
X0073426Y0133611D01*
X0073424Y0133525D01*
X0073418Y0133440D01*
X0073409Y0133354D01*
X0073395Y0133270D01*
X0073378Y0133186D01*
X0073357Y0133103D01*
X0073332Y0133020D01*
X0073304Y0132940D01*
X0073272Y0132860D01*
X0073237Y0132782D01*
X0073198Y0132705D01*
X0073155Y0132631D01*
X0073110Y0132558D01*
X0073061Y0132488D01*
X0073009Y0132420D01*
X0072954Y0132354D01*
X0072896Y0132290D01*
X0072836Y0132230D01*
X0072772Y0132172D01*
X0072706Y0132117D01*
X0072638Y0132065D01*
X0072568Y0132016D01*
X0072495Y0131971D01*
X0072421Y0131928D01*
X0072344Y0131889D01*
X0072266Y0131854D01*
X0072186Y0131822D01*
X0072106Y0131794D01*
X0072023Y0131769D01*
X0071940Y0131748D01*
X0071856Y0131731D01*
X0071772Y0131717D01*
X0071686Y0131708D01*
X0071601Y0131702D01*
X0071515Y0131700D01*
X0068648Y0131700D01*
X0079531Y0131700D02*
X0076665Y0140300D01*
X0082398Y0140300D02*
X0079531Y0131700D01*
D11*
X0045197Y0128700D02*
X0041997Y0123900D01*
X0045197Y0123900D02*
X0041997Y0128700D01*
X0047669Y0125900D02*
X0049136Y0126700D01*
X0048603Y0128700D02*
X0048517Y0128698D01*
X0048432Y0128693D01*
X0048346Y0128683D01*
X0048261Y0128671D01*
X0048177Y0128654D01*
X0048094Y0128634D01*
X0048011Y0128610D01*
X0047930Y0128583D01*
X0047850Y0128553D01*
X0047771Y0128519D01*
X0047694Y0128481D01*
X0047618Y0128441D01*
X0047545Y0128397D01*
X0047473Y0128350D01*
X0047403Y0128300D01*
X0049136Y0126700D02*
X0049189Y0126733D01*
X0049240Y0126769D01*
X0049288Y0126809D01*
X0049335Y0126850D01*
X0049379Y0126895D01*
X0049420Y0126942D01*
X0049458Y0126991D01*
X0049494Y0127042D01*
X0049526Y0127096D01*
X0049556Y0127151D01*
X0049582Y0127207D01*
X0049605Y0127266D01*
X0049624Y0127325D01*
X0049640Y0127385D01*
X0049653Y0127447D01*
X0049662Y0127508D01*
X0049667Y0127571D01*
X0049669Y0127633D01*
X0049670Y0127633D02*
X0049668Y0127697D01*
X0049662Y0127762D01*
X0049653Y0127825D01*
X0049639Y0127888D01*
X0049622Y0127950D01*
X0049601Y0128011D01*
X0049576Y0128071D01*
X0049548Y0128129D01*
X0049516Y0128185D01*
X0049481Y0128239D01*
X0049443Y0128291D01*
X0049402Y0128341D01*
X0049357Y0128387D01*
X0049311Y0128432D01*
X0049261Y0128473D01*
X0049209Y0128511D01*
X0049155Y0128546D01*
X0049099Y0128578D01*
X0049041Y0128606D01*
X0048981Y0128631D01*
X0048920Y0128652D01*
X0048858Y0128669D01*
X0048795Y0128683D01*
X0048732Y0128692D01*
X0048667Y0128698D01*
X0048603Y0128700D01*
X0049803Y0124567D02*
X0049735Y0124501D01*
X0049666Y0124439D01*
X0049593Y0124380D01*
X0049518Y0124324D01*
X0049441Y0124271D01*
X0049362Y0124221D01*
X0049281Y0124174D01*
X0049197Y0124131D01*
X0049113Y0124092D01*
X0049026Y0124056D01*
X0048938Y0124023D01*
X0048849Y0123995D01*
X0048759Y0123970D01*
X0048668Y0123948D01*
X0048576Y0123931D01*
X0048483Y0123917D01*
X0048390Y0123908D01*
X0048297Y0123902D01*
X0048203Y0123900D01*
X0048139Y0123902D01*
X0048074Y0123908D01*
X0048011Y0123917D01*
X0047948Y0123931D01*
X0047886Y0123948D01*
X0047825Y0123969D01*
X0047765Y0123994D01*
X0047707Y0124022D01*
X0047651Y0124054D01*
X0047597Y0124089D01*
X0047545Y0124127D01*
X0047495Y0124168D01*
X0047449Y0124213D01*
X0047404Y0124259D01*
X0047363Y0124309D01*
X0047325Y0124361D01*
X0047290Y0124415D01*
X0047258Y0124471D01*
X0047230Y0124529D01*
X0047205Y0124589D01*
X0047184Y0124650D01*
X0047167Y0124712D01*
X0047153Y0124775D01*
X0047144Y0124838D01*
X0047138Y0124903D01*
X0047136Y0124967D01*
X0047138Y0125029D01*
X0047143Y0125092D01*
X0047152Y0125153D01*
X0047165Y0125215D01*
X0047181Y0125275D01*
X0047200Y0125334D01*
X0047223Y0125393D01*
X0047249Y0125449D01*
X0047279Y0125504D01*
X0047311Y0125558D01*
X0047347Y0125609D01*
X0047385Y0125658D01*
X0047426Y0125705D01*
X0047470Y0125750D01*
X0047517Y0125791D01*
X0047565Y0125831D01*
X0047616Y0125867D01*
X0047669Y0125900D01*
X0052245Y0123900D02*
X0052245Y0128700D01*
X0053845Y0126033D01*
X0055445Y0128700D01*
X0055445Y0123900D01*
X0058056Y0123900D02*
X0060723Y0123900D01*
X0058456Y0126567D01*
X0059256Y0128700D02*
X0059334Y0128698D01*
X0059411Y0128692D01*
X0059488Y0128682D01*
X0059564Y0128669D01*
X0059640Y0128651D01*
X0059714Y0128630D01*
X0059788Y0128605D01*
X0059860Y0128577D01*
X0059931Y0128545D01*
X0059999Y0128509D01*
X0060066Y0128470D01*
X0060131Y0128427D01*
X0060194Y0128382D01*
X0060254Y0128333D01*
X0060312Y0128281D01*
X0060367Y0128227D01*
X0060420Y0128170D01*
X0060469Y0128110D01*
X0060515Y0128048D01*
X0060559Y0127983D01*
X0060598Y0127917D01*
X0060635Y0127848D01*
X0060668Y0127778D01*
X0060697Y0127706D01*
X0060723Y0127633D01*
X0058456Y0126567D02*
X0058407Y0126616D01*
X0058361Y0126668D01*
X0058317Y0126722D01*
X0058277Y0126779D01*
X0058239Y0126837D01*
X0058205Y0126898D01*
X0058174Y0126960D01*
X0058147Y0127024D01*
X0058123Y0127090D01*
X0058103Y0127156D01*
X0058086Y0127224D01*
X0058073Y0127292D01*
X0058064Y0127361D01*
X0058058Y0127430D01*
X0058056Y0127500D01*
X0058058Y0127567D01*
X0058064Y0127634D01*
X0058073Y0127701D01*
X0058086Y0127767D01*
X0058103Y0127832D01*
X0058123Y0127896D01*
X0058147Y0127959D01*
X0058175Y0128021D01*
X0058206Y0128080D01*
X0058240Y0128138D01*
X0058277Y0128194D01*
X0058318Y0128248D01*
X0058361Y0128300D01*
X0058407Y0128349D01*
X0058456Y0128395D01*
X0058508Y0128438D01*
X0058562Y0128479D01*
X0058618Y0128516D01*
X0058676Y0128550D01*
X0058735Y0128581D01*
X0058797Y0128609D01*
X0058860Y0128633D01*
X0058924Y0128653D01*
X0058989Y0128670D01*
X0059055Y0128683D01*
X0059122Y0128692D01*
X0059189Y0128698D01*
X0059256Y0128700D01*
X0063461Y0125900D02*
X0064928Y0126700D01*
X0064395Y0128700D02*
X0064309Y0128698D01*
X0064224Y0128693D01*
X0064138Y0128683D01*
X0064053Y0128671D01*
X0063969Y0128654D01*
X0063886Y0128634D01*
X0063803Y0128610D01*
X0063722Y0128583D01*
X0063642Y0128553D01*
X0063563Y0128519D01*
X0063486Y0128481D01*
X0063410Y0128441D01*
X0063337Y0128397D01*
X0063265Y0128350D01*
X0063195Y0128300D01*
X0064928Y0126700D02*
X0064981Y0126733D01*
X0065032Y0126769D01*
X0065080Y0126809D01*
X0065127Y0126850D01*
X0065171Y0126895D01*
X0065212Y0126942D01*
X0065250Y0126991D01*
X0065286Y0127042D01*
X0065318Y0127096D01*
X0065348Y0127151D01*
X0065374Y0127207D01*
X0065397Y0127266D01*
X0065416Y0127325D01*
X0065432Y0127385D01*
X0065445Y0127447D01*
X0065454Y0127508D01*
X0065459Y0127571D01*
X0065461Y0127633D01*
X0065462Y0127633D02*
X0065460Y0127697D01*
X0065454Y0127762D01*
X0065445Y0127825D01*
X0065431Y0127888D01*
X0065414Y0127950D01*
X0065393Y0128011D01*
X0065368Y0128071D01*
X0065340Y0128129D01*
X0065308Y0128185D01*
X0065273Y0128239D01*
X0065235Y0128291D01*
X0065194Y0128341D01*
X0065149Y0128387D01*
X0065103Y0128432D01*
X0065053Y0128473D01*
X0065001Y0128511D01*
X0064947Y0128546D01*
X0064891Y0128578D01*
X0064833Y0128606D01*
X0064773Y0128631D01*
X0064712Y0128652D01*
X0064650Y0128669D01*
X0064587Y0128683D01*
X0064524Y0128692D01*
X0064459Y0128698D01*
X0064395Y0128700D01*
X0065595Y0124567D02*
X0065527Y0124501D01*
X0065458Y0124439D01*
X0065385Y0124380D01*
X0065310Y0124324D01*
X0065233Y0124271D01*
X0065154Y0124221D01*
X0065073Y0124174D01*
X0064989Y0124131D01*
X0064905Y0124092D01*
X0064818Y0124056D01*
X0064730Y0124023D01*
X0064641Y0123995D01*
X0064551Y0123970D01*
X0064460Y0123948D01*
X0064368Y0123931D01*
X0064275Y0123917D01*
X0064182Y0123908D01*
X0064089Y0123902D01*
X0063995Y0123900D01*
X0063931Y0123902D01*
X0063866Y0123908D01*
X0063803Y0123917D01*
X0063740Y0123931D01*
X0063678Y0123948D01*
X0063617Y0123969D01*
X0063557Y0123994D01*
X0063499Y0124022D01*
X0063443Y0124054D01*
X0063389Y0124089D01*
X0063337Y0124127D01*
X0063287Y0124168D01*
X0063241Y0124213D01*
X0063196Y0124259D01*
X0063155Y0124309D01*
X0063117Y0124361D01*
X0063082Y0124415D01*
X0063050Y0124471D01*
X0063022Y0124529D01*
X0062997Y0124589D01*
X0062976Y0124650D01*
X0062959Y0124712D01*
X0062945Y0124775D01*
X0062936Y0124838D01*
X0062930Y0124903D01*
X0062928Y0124967D01*
X0062930Y0125029D01*
X0062935Y0125092D01*
X0062944Y0125153D01*
X0062957Y0125215D01*
X0062973Y0125275D01*
X0062992Y0125334D01*
X0063015Y0125393D01*
X0063041Y0125449D01*
X0063071Y0125504D01*
X0063103Y0125558D01*
X0063139Y0125609D01*
X0063177Y0125658D01*
X0063218Y0125705D01*
X0063262Y0125750D01*
X0063309Y0125791D01*
X0063357Y0125831D01*
X0063408Y0125867D01*
X0063461Y0125900D01*
X0067479Y0123900D02*
X0069613Y0123900D01*
X0069613Y0128700D01*
X0067479Y0128700D01*
X0068013Y0126567D02*
X0069613Y0126567D01*
X0072336Y0128700D02*
X0072336Y0123900D01*
X0075003Y0128700D01*
X0075003Y0123900D01*
M02*
