%
M48
M72
T01C0.0138
T02C0.0354
T03C0.0472
T04C0.1575
%
T01
X3320Y4255
X3650Y3485
X4530Y3485
X5135Y5740
X7225Y3760
T02
X9100Y4850
X9100Y5850
X9100Y6850
X10100Y6850
X10100Y5850
X10100Y4850
T03
X8224Y8850
X8224Y10228
X6650Y10228
X6650Y8850
X5075Y8850
X5075Y10228
X3500Y8850
T04
X1925Y14165
X9799Y14165
M30
