%
M48
M72
T01C0.0138
T02C0.0354
T03C0.0472
T04C0.1575
%
T01
X3850Y2350
X4850Y2600
X4850Y4350
X4350Y4350
X3350Y5600
X3850Y5850
X2600Y5600
X1850Y5600
X4350Y7600
X5100Y7850
X5350Y6100
X5850Y6100
X6850Y6100
X7850Y6100
X8100Y5600
X8100Y4600
X8100Y3350
X6350Y4350
X7350Y7850
X3850Y10100
X2600Y9350
T02
X8850Y7350
X8850Y6350
X8850Y5350
X9850Y5350
X9850Y6350
X9850Y7350
T03
X8224Y8850
X8224Y10228
X6650Y10228
X6650Y8850
X5075Y8850
X5075Y10228
X3500Y8850
T04
X1925Y14165
X9799Y14165
M30
