G75*
%MOIN*%
%OFA0B0*%
%FSLAX25Y25*%
%IPPOS*%
%LPD*%
%AMOC8*
5,1,8,0,0,1.08239X$1,22.5*
%
%ADD10R,0.07600X0.15000*%
%ADD11C,0.08600*%
%ADD12C,0.00591*%
%ADD13R,0.07000X0.07000*%
%ADD14C,0.07000*%
%ADD15R,0.04724X0.04724*%
%ADD16R,0.05118X0.05906*%
%ADD17R,0.05906X0.05118*%
%ADD18C,0.01600*%
%ADD19C,0.02978*%
%ADD20C,0.05000*%
D10*
X0038500Y0012000D03*
X0048500Y0012000D03*
X0058500Y0012000D03*
X0068500Y0012000D03*
X0078500Y0012000D03*
D11*
X0082244Y0088500D03*
X0082244Y0102280D03*
X0066496Y0102280D03*
X0066496Y0088500D03*
X0050748Y0088500D03*
X0050748Y0102280D03*
X0035000Y0088500D03*
D12*
X0042614Y0056610D02*
X0042614Y0049720D01*
X0042614Y0056610D02*
X0044386Y0056610D01*
X0044386Y0049720D01*
X0042614Y0049720D01*
X0042614Y0050310D02*
X0044386Y0050310D01*
X0044386Y0050900D02*
X0042614Y0050900D01*
X0042614Y0051490D02*
X0044386Y0051490D01*
X0044386Y0052080D02*
X0042614Y0052080D01*
X0042614Y0052670D02*
X0044386Y0052670D01*
X0044386Y0053260D02*
X0042614Y0053260D01*
X0042614Y0053850D02*
X0044386Y0053850D01*
X0044386Y0054440D02*
X0042614Y0054440D01*
X0042614Y0055030D02*
X0044386Y0055030D01*
X0044386Y0055620D02*
X0042614Y0055620D01*
X0042614Y0056210D02*
X0044386Y0056210D01*
X0047614Y0056610D02*
X0047614Y0049720D01*
X0047614Y0056610D02*
X0049386Y0056610D01*
X0049386Y0049720D01*
X0047614Y0049720D01*
X0047614Y0050310D02*
X0049386Y0050310D01*
X0049386Y0050900D02*
X0047614Y0050900D01*
X0047614Y0051490D02*
X0049386Y0051490D01*
X0049386Y0052080D02*
X0047614Y0052080D01*
X0047614Y0052670D02*
X0049386Y0052670D01*
X0049386Y0053260D02*
X0047614Y0053260D01*
X0047614Y0053850D02*
X0049386Y0053850D01*
X0049386Y0054440D02*
X0047614Y0054440D01*
X0047614Y0055030D02*
X0049386Y0055030D01*
X0049386Y0055620D02*
X0047614Y0055620D01*
X0047614Y0056210D02*
X0049386Y0056210D01*
X0052614Y0056610D02*
X0052614Y0049720D01*
X0052614Y0056610D02*
X0054386Y0056610D01*
X0054386Y0049720D01*
X0052614Y0049720D01*
X0052614Y0050310D02*
X0054386Y0050310D01*
X0054386Y0050900D02*
X0052614Y0050900D01*
X0052614Y0051490D02*
X0054386Y0051490D01*
X0054386Y0052080D02*
X0052614Y0052080D01*
X0052614Y0052670D02*
X0054386Y0052670D01*
X0054386Y0053260D02*
X0052614Y0053260D01*
X0052614Y0053850D02*
X0054386Y0053850D01*
X0054386Y0054440D02*
X0052614Y0054440D01*
X0052614Y0055030D02*
X0054386Y0055030D01*
X0054386Y0055620D02*
X0052614Y0055620D01*
X0052614Y0056210D02*
X0054386Y0056210D01*
X0057614Y0056610D02*
X0057614Y0049720D01*
X0057614Y0056610D02*
X0059386Y0056610D01*
X0059386Y0049720D01*
X0057614Y0049720D01*
X0057614Y0050310D02*
X0059386Y0050310D01*
X0059386Y0050900D02*
X0057614Y0050900D01*
X0057614Y0051490D02*
X0059386Y0051490D01*
X0059386Y0052080D02*
X0057614Y0052080D01*
X0057614Y0052670D02*
X0059386Y0052670D01*
X0059386Y0053260D02*
X0057614Y0053260D01*
X0057614Y0053850D02*
X0059386Y0053850D01*
X0059386Y0054440D02*
X0057614Y0054440D01*
X0057614Y0055030D02*
X0059386Y0055030D01*
X0059386Y0055620D02*
X0057614Y0055620D01*
X0057614Y0056210D02*
X0059386Y0056210D01*
X0062614Y0056610D02*
X0062614Y0049720D01*
X0062614Y0056610D02*
X0064386Y0056610D01*
X0064386Y0049720D01*
X0062614Y0049720D01*
X0062614Y0050310D02*
X0064386Y0050310D01*
X0064386Y0050900D02*
X0062614Y0050900D01*
X0062614Y0051490D02*
X0064386Y0051490D01*
X0064386Y0052080D02*
X0062614Y0052080D01*
X0062614Y0052670D02*
X0064386Y0052670D01*
X0064386Y0053260D02*
X0062614Y0053260D01*
X0062614Y0053850D02*
X0064386Y0053850D01*
X0064386Y0054440D02*
X0062614Y0054440D01*
X0062614Y0055030D02*
X0064386Y0055030D01*
X0064386Y0055620D02*
X0062614Y0055620D01*
X0062614Y0056210D02*
X0064386Y0056210D01*
X0067614Y0056610D02*
X0067614Y0049720D01*
X0067614Y0056610D02*
X0069386Y0056610D01*
X0069386Y0049720D01*
X0067614Y0049720D01*
X0067614Y0050310D02*
X0069386Y0050310D01*
X0069386Y0050900D02*
X0067614Y0050900D01*
X0067614Y0051490D02*
X0069386Y0051490D01*
X0069386Y0052080D02*
X0067614Y0052080D01*
X0067614Y0052670D02*
X0069386Y0052670D01*
X0069386Y0053260D02*
X0067614Y0053260D01*
X0067614Y0053850D02*
X0069386Y0053850D01*
X0069386Y0054440D02*
X0067614Y0054440D01*
X0067614Y0055030D02*
X0069386Y0055030D01*
X0069386Y0055620D02*
X0067614Y0055620D01*
X0067614Y0056210D02*
X0069386Y0056210D01*
X0072614Y0056610D02*
X0072614Y0049720D01*
X0072614Y0056610D02*
X0074386Y0056610D01*
X0074386Y0049720D01*
X0072614Y0049720D01*
X0072614Y0050310D02*
X0074386Y0050310D01*
X0074386Y0050900D02*
X0072614Y0050900D01*
X0072614Y0051490D02*
X0074386Y0051490D01*
X0074386Y0052080D02*
X0072614Y0052080D01*
X0072614Y0052670D02*
X0074386Y0052670D01*
X0074386Y0053260D02*
X0072614Y0053260D01*
X0072614Y0053850D02*
X0074386Y0053850D01*
X0074386Y0054440D02*
X0072614Y0054440D01*
X0072614Y0055030D02*
X0074386Y0055030D01*
X0074386Y0055620D02*
X0072614Y0055620D01*
X0072614Y0056210D02*
X0074386Y0056210D01*
X0072614Y0037280D02*
X0072614Y0030390D01*
X0072614Y0037280D02*
X0074386Y0037280D01*
X0074386Y0030390D01*
X0072614Y0030390D01*
X0072614Y0030980D02*
X0074386Y0030980D01*
X0074386Y0031570D02*
X0072614Y0031570D01*
X0072614Y0032160D02*
X0074386Y0032160D01*
X0074386Y0032750D02*
X0072614Y0032750D01*
X0072614Y0033340D02*
X0074386Y0033340D01*
X0074386Y0033930D02*
X0072614Y0033930D01*
X0072614Y0034520D02*
X0074386Y0034520D01*
X0074386Y0035110D02*
X0072614Y0035110D01*
X0072614Y0035700D02*
X0074386Y0035700D01*
X0074386Y0036290D02*
X0072614Y0036290D01*
X0072614Y0036880D02*
X0074386Y0036880D01*
X0067614Y0037280D02*
X0067614Y0030390D01*
X0067614Y0037280D02*
X0069386Y0037280D01*
X0069386Y0030390D01*
X0067614Y0030390D01*
X0067614Y0030980D02*
X0069386Y0030980D01*
X0069386Y0031570D02*
X0067614Y0031570D01*
X0067614Y0032160D02*
X0069386Y0032160D01*
X0069386Y0032750D02*
X0067614Y0032750D01*
X0067614Y0033340D02*
X0069386Y0033340D01*
X0069386Y0033930D02*
X0067614Y0033930D01*
X0067614Y0034520D02*
X0069386Y0034520D01*
X0069386Y0035110D02*
X0067614Y0035110D01*
X0067614Y0035700D02*
X0069386Y0035700D01*
X0069386Y0036290D02*
X0067614Y0036290D01*
X0067614Y0036880D02*
X0069386Y0036880D01*
X0062614Y0037280D02*
X0062614Y0030390D01*
X0062614Y0037280D02*
X0064386Y0037280D01*
X0064386Y0030390D01*
X0062614Y0030390D01*
X0062614Y0030980D02*
X0064386Y0030980D01*
X0064386Y0031570D02*
X0062614Y0031570D01*
X0062614Y0032160D02*
X0064386Y0032160D01*
X0064386Y0032750D02*
X0062614Y0032750D01*
X0062614Y0033340D02*
X0064386Y0033340D01*
X0064386Y0033930D02*
X0062614Y0033930D01*
X0062614Y0034520D02*
X0064386Y0034520D01*
X0064386Y0035110D02*
X0062614Y0035110D01*
X0062614Y0035700D02*
X0064386Y0035700D01*
X0064386Y0036290D02*
X0062614Y0036290D01*
X0062614Y0036880D02*
X0064386Y0036880D01*
X0057614Y0037280D02*
X0057614Y0030390D01*
X0057614Y0037280D02*
X0059386Y0037280D01*
X0059386Y0030390D01*
X0057614Y0030390D01*
X0057614Y0030980D02*
X0059386Y0030980D01*
X0059386Y0031570D02*
X0057614Y0031570D01*
X0057614Y0032160D02*
X0059386Y0032160D01*
X0059386Y0032750D02*
X0057614Y0032750D01*
X0057614Y0033340D02*
X0059386Y0033340D01*
X0059386Y0033930D02*
X0057614Y0033930D01*
X0057614Y0034520D02*
X0059386Y0034520D01*
X0059386Y0035110D02*
X0057614Y0035110D01*
X0057614Y0035700D02*
X0059386Y0035700D01*
X0059386Y0036290D02*
X0057614Y0036290D01*
X0057614Y0036880D02*
X0059386Y0036880D01*
X0052614Y0037280D02*
X0052614Y0030390D01*
X0052614Y0037280D02*
X0054386Y0037280D01*
X0054386Y0030390D01*
X0052614Y0030390D01*
X0052614Y0030980D02*
X0054386Y0030980D01*
X0054386Y0031570D02*
X0052614Y0031570D01*
X0052614Y0032160D02*
X0054386Y0032160D01*
X0054386Y0032750D02*
X0052614Y0032750D01*
X0052614Y0033340D02*
X0054386Y0033340D01*
X0054386Y0033930D02*
X0052614Y0033930D01*
X0052614Y0034520D02*
X0054386Y0034520D01*
X0054386Y0035110D02*
X0052614Y0035110D01*
X0052614Y0035700D02*
X0054386Y0035700D01*
X0054386Y0036290D02*
X0052614Y0036290D01*
X0052614Y0036880D02*
X0054386Y0036880D01*
X0047614Y0037280D02*
X0047614Y0030390D01*
X0047614Y0037280D02*
X0049386Y0037280D01*
X0049386Y0030390D01*
X0047614Y0030390D01*
X0047614Y0030980D02*
X0049386Y0030980D01*
X0049386Y0031570D02*
X0047614Y0031570D01*
X0047614Y0032160D02*
X0049386Y0032160D01*
X0049386Y0032750D02*
X0047614Y0032750D01*
X0047614Y0033340D02*
X0049386Y0033340D01*
X0049386Y0033930D02*
X0047614Y0033930D01*
X0047614Y0034520D02*
X0049386Y0034520D01*
X0049386Y0035110D02*
X0047614Y0035110D01*
X0047614Y0035700D02*
X0049386Y0035700D01*
X0049386Y0036290D02*
X0047614Y0036290D01*
X0047614Y0036880D02*
X0049386Y0036880D01*
X0042614Y0037280D02*
X0042614Y0030390D01*
X0042614Y0037280D02*
X0044386Y0037280D01*
X0044386Y0030390D01*
X0042614Y0030390D01*
X0042614Y0030980D02*
X0044386Y0030980D01*
X0044386Y0031570D02*
X0042614Y0031570D01*
X0042614Y0032160D02*
X0044386Y0032160D01*
X0044386Y0032750D02*
X0042614Y0032750D01*
X0042614Y0033340D02*
X0044386Y0033340D01*
X0044386Y0033930D02*
X0042614Y0033930D01*
X0042614Y0034520D02*
X0044386Y0034520D01*
X0044386Y0035110D02*
X0042614Y0035110D01*
X0042614Y0035700D02*
X0044386Y0035700D01*
X0044386Y0036290D02*
X0042614Y0036290D01*
X0042614Y0036880D02*
X0044386Y0036880D01*
D13*
X0088500Y0073500D03*
D14*
X0088500Y0063500D03*
X0088500Y0053500D03*
X0098500Y0053500D03*
X0098500Y0063500D03*
X0098500Y0073500D03*
D15*
X0020134Y0073500D03*
X0020134Y0063500D03*
X0011866Y0063500D03*
X0011866Y0073500D03*
D16*
X0039760Y0068500D03*
X0047240Y0068500D03*
X0057260Y0068500D03*
X0064740Y0068500D03*
D17*
X0033500Y0047240D03*
X0033500Y0039760D03*
D18*
X0033500Y0041000D02*
X0028500Y0041000D01*
X0021000Y0048500D01*
X0021000Y0051000D01*
X0026000Y0056000D01*
X0020134Y0063500D02*
X0051000Y0063500D01*
X0053500Y0066000D01*
X0056000Y0066000D01*
X0056000Y0068500D01*
X0057260Y0068500D01*
X0061000Y0073500D02*
X0046000Y0073500D01*
X0043500Y0076000D01*
X0046000Y0073500D02*
X0046000Y0068500D01*
X0047240Y0068500D01*
X0053500Y0061000D02*
X0053500Y0053165D01*
X0058500Y0053165D02*
X0058500Y0048500D01*
X0063500Y0043500D01*
X0063500Y0033835D02*
X0063500Y0031000D01*
X0066000Y0028500D01*
X0066000Y0023500D01*
X0068500Y0021000D01*
X0068500Y0012000D01*
X0058500Y0012000D02*
X0058500Y0033835D01*
X0053500Y0033835D02*
X0053500Y0026000D01*
X0048500Y0021000D01*
X0048500Y0012000D01*
X0038500Y0012000D02*
X0038500Y0023500D01*
X0043500Y0031000D02*
X0048500Y0026000D01*
X0043500Y0031000D02*
X0043500Y0033835D01*
X0048500Y0033835D02*
X0048500Y0043500D01*
X0043500Y0043500D02*
X0041000Y0041000D01*
X0033500Y0041000D01*
X0033500Y0039760D01*
X0033500Y0047240D02*
X0033500Y0056000D01*
X0038500Y0058500D02*
X0043500Y0053500D01*
X0043500Y0053165D01*
X0039760Y0068500D02*
X0033500Y0068500D01*
X0028500Y0073500D01*
X0020134Y0073500D01*
X0013500Y0063500D02*
X0011866Y0063500D01*
X0013500Y0063500D02*
X0013500Y0061000D01*
X0018500Y0056000D01*
X0011866Y0073500D02*
X0011000Y0073500D01*
X0011000Y0081000D01*
X0021000Y0091000D01*
X0021000Y0093500D01*
X0028500Y0101000D01*
X0038500Y0101000D01*
X0035000Y0088500D02*
X0031000Y0088500D01*
X0026000Y0093500D01*
X0051000Y0078500D02*
X0058500Y0086000D01*
X0058500Y0103500D01*
X0071000Y0116000D01*
X0101000Y0116000D01*
X0101000Y0086000D01*
X0106000Y0081000D01*
X0106000Y0071000D01*
X0101000Y0066000D01*
X0098500Y0066000D01*
X0098500Y0063500D01*
X0098500Y0073500D02*
X0091000Y0081000D01*
X0083500Y0081000D01*
X0076000Y0073500D01*
X0076000Y0068500D01*
X0071000Y0063500D01*
X0066000Y0068500D01*
X0064740Y0068500D01*
X0063500Y0068500D01*
X0063500Y0071000D01*
X0061000Y0073500D01*
X0071000Y0081000D02*
X0071000Y0083500D01*
X0068500Y0086000D01*
X0068500Y0088500D01*
X0066496Y0088500D01*
X0071000Y0081000D02*
X0073500Y0078500D01*
X0081000Y0073500D02*
X0078500Y0071000D01*
X0078500Y0061000D01*
X0081000Y0056000D02*
X0081000Y0046000D01*
X0073500Y0053165D02*
X0073500Y0061000D01*
X0071000Y0063500D01*
X0068500Y0061000D02*
X0068500Y0053165D01*
X0063500Y0053165D02*
X0063500Y0056000D01*
X0058500Y0061000D01*
X0068500Y0033835D02*
X0068500Y0031000D01*
X0078500Y0021000D01*
X0078500Y0012000D01*
X0081000Y0033500D02*
X0073500Y0033500D01*
X0073500Y0033835D01*
X0081000Y0073500D02*
X0088500Y0073500D01*
D19*
X0078500Y0061000D03*
X0081000Y0056000D03*
X0081000Y0046000D03*
X0081000Y0033500D03*
X0063500Y0043500D03*
X0058500Y0061000D03*
X0053500Y0061000D03*
X0043500Y0076000D03*
X0051000Y0078500D03*
X0038500Y0058500D03*
X0033500Y0056000D03*
X0026000Y0056000D03*
X0018500Y0056000D03*
X0038500Y0023500D03*
X0048500Y0026000D03*
X0048500Y0043500D03*
X0043500Y0043500D03*
X0068500Y0061000D03*
X0073500Y0078500D03*
X0038500Y0101000D03*
X0026000Y0093500D03*
D20*
X0030818Y0095427D02*
X0030399Y0096439D01*
X0029927Y0096911D01*
X0030115Y0097100D01*
X0035062Y0097100D01*
X0035561Y0096601D01*
X0035805Y0096500D01*
X0033409Y0096500D01*
X0030818Y0095427D01*
X0025674Y0088311D02*
X0027000Y0086985D01*
X0027000Y0086909D01*
X0028218Y0083968D01*
X0030468Y0081718D01*
X0033409Y0080500D01*
X0036591Y0080500D01*
X0039532Y0081718D01*
X0041782Y0083968D01*
X0042874Y0086605D01*
X0043966Y0083968D01*
X0046216Y0081718D01*
X0046685Y0081524D01*
X0046601Y0081439D01*
X0046210Y0080494D01*
X0044532Y0081189D01*
X0042468Y0081189D01*
X0040561Y0080399D01*
X0039101Y0078939D01*
X0038311Y0077032D01*
X0038311Y0075153D01*
X0036465Y0075153D01*
X0035105Y0074589D01*
X0034064Y0073549D01*
X0034036Y0073480D01*
X0030709Y0076806D01*
X0029276Y0077400D01*
X0025864Y0077400D01*
X0025633Y0077958D01*
X0024592Y0078999D01*
X0023232Y0079562D01*
X0017036Y0079562D01*
X0016000Y0079133D01*
X0015044Y0079529D01*
X0023209Y0087694D01*
X0024161Y0088645D01*
X0024968Y0088311D01*
X0025674Y0088311D01*
X0024573Y0088475D02*
X0023990Y0088475D01*
X0028710Y0083476D02*
X0018992Y0083476D01*
X0012959Y0088475D02*
X0010300Y0088475D01*
X0010300Y0085815D02*
X0010300Y0114385D01*
X0012352Y0115235D01*
X0014265Y0117148D01*
X0015300Y0119647D01*
X0015300Y0127827D01*
X0017360Y0127276D01*
X0021144Y0127276D01*
X0024800Y0128255D01*
X0028078Y0130148D01*
X0030754Y0132824D01*
X0032646Y0136101D01*
X0033626Y0139757D01*
X0033626Y0143542D01*
X0032646Y0147198D01*
X0030754Y0150475D01*
X0029529Y0151700D01*
X0087715Y0151700D01*
X0086490Y0150475D01*
X0084598Y0147198D01*
X0083618Y0143542D01*
X0083618Y0139757D01*
X0084598Y0136101D01*
X0086490Y0132824D01*
X0089166Y0130148D01*
X0092444Y0128255D01*
X0096100Y0127276D01*
X0099884Y0127276D01*
X0101700Y0127762D01*
X0101700Y0119900D01*
X0070224Y0119900D01*
X0068791Y0119306D01*
X0067694Y0118209D01*
X0056913Y0107428D01*
X0055280Y0109062D01*
X0052339Y0110280D01*
X0049157Y0110280D01*
X0046216Y0109062D01*
X0043966Y0106811D01*
X0042812Y0104026D01*
X0041439Y0105399D01*
X0039532Y0106189D01*
X0037468Y0106189D01*
X0035561Y0105399D01*
X0035062Y0104900D01*
X0027724Y0104900D01*
X0026291Y0104306D01*
X0025194Y0103209D01*
X0017694Y0095709D01*
X0017100Y0094276D01*
X0017100Y0092615D01*
X0010300Y0085815D01*
X0010300Y0093473D02*
X0017100Y0093473D01*
X0020456Y0098472D02*
X0010300Y0098472D01*
X0010300Y0103470D02*
X0025455Y0103470D01*
X0014811Y0118466D02*
X0067950Y0118466D01*
X0072615Y0112100D02*
X0097100Y0112100D01*
X0097100Y0085224D01*
X0097694Y0083791D01*
X0101387Y0080097D01*
X0099932Y0080700D01*
X0097068Y0080700D01*
X0096889Y0080626D01*
X0094306Y0083209D01*
X0093209Y0084306D01*
X0091776Y0084900D01*
X0089412Y0084900D01*
X0090244Y0086909D01*
X0090244Y0090091D01*
X0089026Y0093032D01*
X0086776Y0095282D01*
X0086516Y0095390D01*
X0086776Y0095497D01*
X0089026Y0097748D01*
X0090244Y0100688D01*
X0090244Y0103871D01*
X0089026Y0106811D01*
X0086776Y0109062D01*
X0083835Y0110280D01*
X0080653Y0110280D01*
X0077712Y0109062D01*
X0075462Y0106811D01*
X0074370Y0104175D01*
X0073278Y0106811D01*
X0071028Y0109062D01*
X0070002Y0109486D01*
X0072615Y0112100D01*
X0071621Y0108469D02*
X0077120Y0108469D01*
X0074370Y0100384D02*
X0075462Y0097748D01*
X0077712Y0095497D01*
X0077972Y0095390D01*
X0077712Y0095282D01*
X0075462Y0093032D01*
X0074370Y0090395D01*
X0073278Y0093032D01*
X0071028Y0095282D01*
X0070768Y0095390D01*
X0071028Y0095497D01*
X0073278Y0097748D01*
X0074370Y0100384D01*
X0073578Y0098472D02*
X0075162Y0098472D01*
X0075904Y0093473D02*
X0072837Y0093473D01*
X0074370Y0086605D02*
X0074089Y0085926D01*
X0074306Y0085709D01*
X0074900Y0084276D01*
X0074900Y0083537D01*
X0076439Y0082899D01*
X0077899Y0081439D01*
X0078053Y0081068D01*
X0078413Y0081428D01*
X0077712Y0081718D01*
X0075462Y0083968D01*
X0074370Y0086605D01*
X0075046Y0083476D02*
X0075954Y0083476D01*
X0068311Y0077468D02*
X0069101Y0075561D01*
X0070561Y0074101D01*
X0072100Y0073463D01*
X0072100Y0070115D01*
X0071000Y0069015D01*
X0070999Y0069016D01*
X0070999Y0072189D01*
X0070436Y0073549D01*
X0069395Y0074589D01*
X0068035Y0075153D01*
X0064863Y0075153D01*
X0064306Y0075709D01*
X0063209Y0076806D01*
X0061776Y0077400D01*
X0056161Y0077400D01*
X0056189Y0077468D01*
X0056189Y0078174D01*
X0060709Y0082694D01*
X0060849Y0082833D01*
X0061964Y0081718D01*
X0064905Y0080500D01*
X0067100Y0080500D01*
X0067100Y0080224D01*
X0067694Y0078791D01*
X0068311Y0078174D01*
X0068311Y0077468D01*
X0068007Y0078478D02*
X0056493Y0078478D01*
X0064306Y0075709D02*
X0064306Y0075709D01*
X0070465Y0073479D02*
X0072062Y0073479D01*
X0088585Y0093473D02*
X0097100Y0093473D01*
X0097100Y0088475D02*
X0090244Y0088475D01*
X0094039Y0083476D02*
X0098008Y0083476D01*
X0104900Y0087615D02*
X0104900Y0115131D01*
X0106700Y0114385D01*
X0106700Y0085815D01*
X0104900Y0087615D01*
X0104900Y0088475D02*
X0106700Y0088475D01*
X0106700Y0093473D02*
X0104900Y0093473D01*
X0104900Y0098472D02*
X0106700Y0098472D01*
X0106700Y0103470D02*
X0104900Y0103470D01*
X0104900Y0108469D02*
X0106700Y0108469D01*
X0106700Y0113467D02*
X0104900Y0113467D01*
X0101700Y0123464D02*
X0015300Y0123464D01*
X0010300Y0113467D02*
X0062952Y0113467D01*
X0057953Y0108469D02*
X0055873Y0108469D01*
X0043966Y0097748D02*
X0046216Y0095497D01*
X0046476Y0095390D01*
X0046216Y0095282D01*
X0043966Y0093032D01*
X0042874Y0090395D01*
X0041782Y0093032D01*
X0039532Y0095282D01*
X0038255Y0095811D01*
X0039532Y0095811D01*
X0041439Y0096601D01*
X0042899Y0098061D01*
X0043368Y0099192D01*
X0043966Y0097748D01*
X0043666Y0098472D02*
X0043069Y0098472D01*
X0044408Y0093473D02*
X0041340Y0093473D01*
X0041290Y0083476D02*
X0044458Y0083476D01*
X0038910Y0078478D02*
X0025113Y0078478D01*
X0025864Y0069600D02*
X0025633Y0069042D01*
X0025091Y0068500D01*
X0025633Y0067958D01*
X0025864Y0067400D01*
X0029085Y0067400D01*
X0026885Y0069600D01*
X0025864Y0069600D01*
X0025110Y0068481D02*
X0028004Y0068481D01*
X0029738Y0059600D02*
X0029762Y0059600D01*
X0029750Y0059588D01*
X0029738Y0059600D01*
X0026962Y0050811D02*
X0026847Y0050535D01*
X0026847Y0048168D01*
X0025265Y0049750D01*
X0026326Y0050811D01*
X0026962Y0050811D01*
X0026847Y0048487D02*
X0026529Y0048487D01*
X0032800Y0033501D02*
X0037189Y0033501D01*
X0038549Y0034064D01*
X0038619Y0034134D01*
X0038619Y0029595D01*
X0038994Y0028689D01*
X0037468Y0028689D01*
X0035561Y0027899D01*
X0034101Y0026439D01*
X0033311Y0024532D01*
X0033311Y0022930D01*
X0032800Y0022718D01*
X0032800Y0033501D01*
X0032800Y0033491D02*
X0038619Y0033491D01*
X0036994Y0028493D02*
X0032800Y0028493D01*
X0032800Y0023494D02*
X0033311Y0023494D01*
X0043149Y0025835D02*
X0043311Y0025445D01*
X0043311Y0025674D01*
X0043149Y0025835D01*
X0043689Y0024055D02*
X0044043Y0023200D01*
X0043964Y0023200D01*
X0043689Y0023086D01*
X0043689Y0024055D01*
X0043689Y0023494D02*
X0043921Y0023494D01*
X0053195Y0041275D02*
X0053689Y0042468D01*
X0053689Y0044532D01*
X0053195Y0045725D01*
X0055181Y0045725D01*
X0055590Y0045895D01*
X0056291Y0045194D01*
X0058311Y0043174D01*
X0058311Y0042468D01*
X0058805Y0041275D01*
X0056819Y0041275D01*
X0056000Y0040935D01*
X0055181Y0041275D01*
X0053195Y0041275D01*
X0053689Y0043488D02*
X0057996Y0043488D01*
X0056291Y0045194D02*
X0056291Y0045194D01*
X0068195Y0045725D02*
X0068689Y0044532D01*
X0068689Y0042468D01*
X0068195Y0041275D01*
X0070181Y0041275D01*
X0071000Y0040935D01*
X0071819Y0041275D01*
X0075181Y0041275D01*
X0076649Y0040667D01*
X0077773Y0039543D01*
X0078381Y0038074D01*
X0078381Y0038032D01*
X0079968Y0038689D01*
X0082032Y0038689D01*
X0083939Y0037899D01*
X0084284Y0037555D01*
X0085235Y0039852D01*
X0087148Y0041765D01*
X0093601Y0048217D01*
X0093500Y0048318D01*
X0092578Y0047396D01*
X0089932Y0046300D01*
X0087068Y0046300D01*
X0086189Y0046664D01*
X0086189Y0044968D01*
X0085399Y0043061D01*
X0083939Y0041601D01*
X0082032Y0040811D01*
X0079968Y0040811D01*
X0078061Y0041601D01*
X0076601Y0043061D01*
X0075811Y0044968D01*
X0075811Y0045986D01*
X0075181Y0045725D01*
X0071819Y0045725D01*
X0071000Y0046065D01*
X0070181Y0045725D01*
X0068195Y0045725D01*
X0068689Y0043488D02*
X0076424Y0043488D01*
X0078209Y0038490D02*
X0079486Y0038490D01*
X0082514Y0038490D02*
X0084671Y0038490D01*
X0085576Y0043488D02*
X0088871Y0043488D01*
X0084200Y0029362D02*
X0084200Y0022718D01*
X0083036Y0023200D01*
X0081810Y0023200D01*
X0081806Y0023209D01*
X0080709Y0024306D01*
X0077331Y0027685D01*
X0077773Y0028127D01*
X0078159Y0029060D01*
X0079968Y0028311D01*
X0082032Y0028311D01*
X0083939Y0029101D01*
X0084200Y0029362D01*
X0084200Y0028493D02*
X0082470Y0028493D01*
X0079530Y0028493D02*
X0077924Y0028493D01*
X0081521Y0023494D02*
X0084200Y0023494D01*
X0103783Y0058399D02*
X0103682Y0058500D01*
X0104604Y0059422D01*
X0105700Y0062068D01*
X0105700Y0064932D01*
X0105626Y0065111D01*
X0106700Y0066185D01*
X0106700Y0061317D01*
X0103783Y0058399D01*
X0103699Y0058484D02*
X0103867Y0058484D01*
X0105700Y0063482D02*
X0106700Y0063482D01*
X0097100Y0098472D02*
X0089326Y0098472D01*
X0090244Y0103470D02*
X0097100Y0103470D01*
X0097100Y0108469D02*
X0087369Y0108469D01*
X0092084Y0128463D02*
X0025160Y0128463D01*
X0031122Y0133461D02*
X0086122Y0133461D01*
X0083966Y0138460D02*
X0033278Y0138460D01*
X0033626Y0143458D02*
X0083618Y0143458D01*
X0085325Y0148457D02*
X0031919Y0148457D01*
X0045624Y0108469D02*
X0010300Y0108469D01*
X0038003Y0053311D02*
X0038174Y0053311D01*
X0038619Y0052866D01*
X0038619Y0052866D01*
X0038549Y0052936D01*
X0037950Y0053184D01*
X0038003Y0053311D01*
M02*
