G75*
%MOIN*%
%OFA0B0*%
%FSLAX25Y25*%
%IPPOS*%
%LPD*%
%AMOC8*
5,1,8,0,0,1.08239X$1,22.5*
%
%ADD10C,0.00400*%
%ADD11C,0.01600*%
%ADD12C,0.00600*%
%ADD13C,0.00787*%
%ADD14C,0.00500*%
%ADD15C,0.00300*%
%ADD16R,0.03937X0.01181*%
%ADD17R,0.01181X0.01181*%
D10*
X0033700Y0038222D02*
X0033700Y0039244D01*
X0033700Y0038222D02*
X0033702Y0038160D01*
X0033707Y0038099D01*
X0033717Y0038038D01*
X0033730Y0037977D01*
X0033746Y0037918D01*
X0033766Y0037860D01*
X0033790Y0037803D01*
X0033817Y0037747D01*
X0033847Y0037693D01*
X0033881Y0037641D01*
X0033918Y0037592D01*
X0033957Y0037544D01*
X0033999Y0037499D01*
X0034044Y0037457D01*
X0034092Y0037417D01*
X0034141Y0037381D01*
X0034193Y0037347D01*
X0034247Y0037317D01*
X0034303Y0037290D01*
X0034360Y0037266D01*
X0034418Y0037246D01*
X0034477Y0037230D01*
X0034538Y0037217D01*
X0034599Y0037207D01*
X0034660Y0037202D01*
X0034722Y0037200D01*
X0037278Y0037200D01*
X0037340Y0037202D01*
X0037401Y0037207D01*
X0037462Y0037217D01*
X0037523Y0037230D01*
X0037582Y0037246D01*
X0037640Y0037266D01*
X0037697Y0037290D01*
X0037753Y0037317D01*
X0037807Y0037347D01*
X0037859Y0037381D01*
X0037908Y0037417D01*
X0037956Y0037457D01*
X0038001Y0037499D01*
X0038043Y0037544D01*
X0038083Y0037592D01*
X0038119Y0037641D01*
X0038153Y0037693D01*
X0038183Y0037747D01*
X0038210Y0037803D01*
X0038234Y0037860D01*
X0038254Y0037918D01*
X0038270Y0037977D01*
X0038283Y0038038D01*
X0038293Y0038099D01*
X0038298Y0038160D01*
X0038300Y0038222D01*
X0038300Y0039244D01*
X0038300Y0040963D02*
X0038300Y0043519D01*
X0038300Y0042241D02*
X0033700Y0042241D01*
X0034722Y0040963D01*
X0090744Y0041300D02*
X0091767Y0041300D01*
X0091256Y0041300D02*
X0091256Y0036700D01*
X0091767Y0036700D02*
X0090744Y0036700D01*
X0093565Y0037722D02*
X0093565Y0040278D01*
X0093567Y0040340D01*
X0093572Y0040401D01*
X0093582Y0040462D01*
X0093595Y0040523D01*
X0093611Y0040582D01*
X0093631Y0040640D01*
X0093655Y0040697D01*
X0093682Y0040753D01*
X0093712Y0040807D01*
X0093746Y0040859D01*
X0093782Y0040908D01*
X0093822Y0040956D01*
X0093864Y0041001D01*
X0093909Y0041043D01*
X0093957Y0041082D01*
X0094006Y0041119D01*
X0094058Y0041153D01*
X0094112Y0041183D01*
X0094168Y0041210D01*
X0094225Y0041234D01*
X0094283Y0041254D01*
X0094342Y0041270D01*
X0094403Y0041283D01*
X0094464Y0041293D01*
X0094525Y0041298D01*
X0094587Y0041300D01*
X0095609Y0041300D01*
X0097817Y0039383D02*
X0099222Y0038617D01*
X0098711Y0036700D02*
X0098621Y0036702D01*
X0098532Y0036707D01*
X0098443Y0036717D01*
X0098354Y0036730D01*
X0098266Y0036746D01*
X0098178Y0036767D01*
X0098092Y0036791D01*
X0098006Y0036818D01*
X0097922Y0036849D01*
X0097839Y0036884D01*
X0097758Y0036922D01*
X0097678Y0036963D01*
X0097601Y0037007D01*
X0097525Y0037055D01*
X0097451Y0037106D01*
X0097379Y0037160D01*
X0097310Y0037217D01*
X0097242Y0037276D01*
X0097178Y0037339D01*
X0099222Y0038616D02*
X0099276Y0038582D01*
X0099327Y0038545D01*
X0099376Y0038505D01*
X0099423Y0038462D01*
X0099466Y0038416D01*
X0099507Y0038368D01*
X0099545Y0038317D01*
X0099580Y0038264D01*
X0099612Y0038209D01*
X0099640Y0038152D01*
X0099664Y0038094D01*
X0099685Y0038034D01*
X0099702Y0037973D01*
X0099716Y0037911D01*
X0099725Y0037848D01*
X0099731Y0037785D01*
X0099733Y0037722D01*
X0099731Y0037660D01*
X0099726Y0037599D01*
X0099716Y0037538D01*
X0099703Y0037477D01*
X0099687Y0037418D01*
X0099667Y0037360D01*
X0099643Y0037303D01*
X0099616Y0037247D01*
X0099586Y0037193D01*
X0099552Y0037141D01*
X0099516Y0037092D01*
X0099476Y0037044D01*
X0099434Y0036999D01*
X0099389Y0036957D01*
X0099341Y0036917D01*
X0099292Y0036881D01*
X0099240Y0036847D01*
X0099186Y0036817D01*
X0099130Y0036790D01*
X0099073Y0036766D01*
X0099015Y0036746D01*
X0098956Y0036730D01*
X0098895Y0036717D01*
X0098834Y0036707D01*
X0098773Y0036702D01*
X0098711Y0036700D01*
X0099478Y0040917D02*
X0099411Y0040965D01*
X0099343Y0041010D01*
X0099272Y0041052D01*
X0099199Y0041090D01*
X0099125Y0041126D01*
X0099050Y0041159D01*
X0098973Y0041188D01*
X0098895Y0041214D01*
X0098816Y0041237D01*
X0098736Y0041256D01*
X0098655Y0041272D01*
X0098574Y0041284D01*
X0098492Y0041293D01*
X0098410Y0041298D01*
X0098328Y0041300D01*
X0098266Y0041298D01*
X0098205Y0041293D01*
X0098144Y0041283D01*
X0098083Y0041270D01*
X0098024Y0041254D01*
X0097966Y0041234D01*
X0097909Y0041210D01*
X0097853Y0041183D01*
X0097799Y0041153D01*
X0097747Y0041119D01*
X0097698Y0041083D01*
X0097650Y0041043D01*
X0097605Y0041001D01*
X0097563Y0040956D01*
X0097524Y0040908D01*
X0097487Y0040859D01*
X0097453Y0040807D01*
X0097423Y0040753D01*
X0097396Y0040697D01*
X0097372Y0040640D01*
X0097352Y0040582D01*
X0097336Y0040523D01*
X0097323Y0040462D01*
X0097313Y0040401D01*
X0097308Y0040340D01*
X0097306Y0040278D01*
X0097308Y0040215D01*
X0097314Y0040152D01*
X0097323Y0040089D01*
X0097337Y0040027D01*
X0097354Y0039966D01*
X0097375Y0039906D01*
X0097399Y0039848D01*
X0097427Y0039791D01*
X0097459Y0039736D01*
X0097494Y0039683D01*
X0097532Y0039632D01*
X0097573Y0039584D01*
X0097616Y0039538D01*
X0097663Y0039495D01*
X0097712Y0039455D01*
X0097763Y0039418D01*
X0097817Y0039384D01*
X0095609Y0036700D02*
X0094587Y0036700D01*
X0094525Y0036702D01*
X0094464Y0036707D01*
X0094403Y0036717D01*
X0094342Y0036730D01*
X0094283Y0036746D01*
X0094225Y0036766D01*
X0094168Y0036790D01*
X0094112Y0036817D01*
X0094058Y0036847D01*
X0094006Y0036881D01*
X0093957Y0036917D01*
X0093909Y0036957D01*
X0093864Y0036999D01*
X0093822Y0037044D01*
X0093782Y0037092D01*
X0093746Y0037141D01*
X0093712Y0037193D01*
X0093682Y0037247D01*
X0093655Y0037303D01*
X0093631Y0037360D01*
X0093611Y0037418D01*
X0093595Y0037477D01*
X0093582Y0037538D01*
X0093572Y0037599D01*
X0093567Y0037660D01*
X0093565Y0037722D01*
X0101744Y0036700D02*
X0101744Y0041300D01*
X0103022Y0041300D01*
X0103092Y0041298D01*
X0103163Y0041292D01*
X0103232Y0041283D01*
X0103301Y0041269D01*
X0103370Y0041252D01*
X0103437Y0041231D01*
X0103503Y0041206D01*
X0103567Y0041178D01*
X0103630Y0041146D01*
X0103691Y0041111D01*
X0103750Y0041072D01*
X0103807Y0041031D01*
X0103861Y0040986D01*
X0103913Y0040938D01*
X0103962Y0040888D01*
X0104009Y0040834D01*
X0104052Y0040779D01*
X0104092Y0040721D01*
X0104129Y0040661D01*
X0104162Y0040599D01*
X0104192Y0040535D01*
X0104219Y0040470D01*
X0104242Y0040404D01*
X0104261Y0040336D01*
X0104276Y0040267D01*
X0104288Y0040198D01*
X0104296Y0040128D01*
X0104300Y0040057D01*
X0104300Y0039987D01*
X0104296Y0039916D01*
X0104288Y0039846D01*
X0104276Y0039777D01*
X0104261Y0039708D01*
X0104242Y0039640D01*
X0104219Y0039574D01*
X0104192Y0039509D01*
X0104162Y0039445D01*
X0104129Y0039383D01*
X0104092Y0039323D01*
X0104052Y0039265D01*
X0104009Y0039210D01*
X0103962Y0039156D01*
X0103913Y0039106D01*
X0103861Y0039058D01*
X0103807Y0039013D01*
X0103750Y0038972D01*
X0103691Y0038933D01*
X0103630Y0038898D01*
X0103567Y0038866D01*
X0103503Y0038838D01*
X0103437Y0038813D01*
X0103370Y0038792D01*
X0103301Y0038775D01*
X0103232Y0038761D01*
X0103163Y0038752D01*
X0103092Y0038746D01*
X0103022Y0038744D01*
X0101744Y0038744D01*
D11*
X0105713Y0043500D02*
X0105715Y0043556D01*
X0105721Y0043611D01*
X0105731Y0043665D01*
X0105744Y0043719D01*
X0105762Y0043772D01*
X0105783Y0043823D01*
X0105807Y0043873D01*
X0105835Y0043921D01*
X0105867Y0043967D01*
X0105901Y0044011D01*
X0105939Y0044052D01*
X0105979Y0044090D01*
X0106022Y0044125D01*
X0106067Y0044157D01*
X0106115Y0044186D01*
X0106164Y0044212D01*
X0106215Y0044234D01*
X0106267Y0044252D01*
X0106321Y0044266D01*
X0106376Y0044277D01*
X0106431Y0044284D01*
X0106486Y0044287D01*
X0106542Y0044286D01*
X0106597Y0044281D01*
X0106652Y0044272D01*
X0106706Y0044260D01*
X0106759Y0044243D01*
X0106811Y0044223D01*
X0106861Y0044199D01*
X0106909Y0044172D01*
X0106956Y0044142D01*
X0107000Y0044108D01*
X0107042Y0044071D01*
X0107080Y0044031D01*
X0107117Y0043989D01*
X0107150Y0043944D01*
X0107179Y0043898D01*
X0107206Y0043849D01*
X0107228Y0043798D01*
X0107248Y0043746D01*
X0107263Y0043692D01*
X0107275Y0043638D01*
X0107283Y0043583D01*
X0107287Y0043528D01*
X0107287Y0043472D01*
X0107283Y0043417D01*
X0107275Y0043362D01*
X0107263Y0043308D01*
X0107248Y0043254D01*
X0107228Y0043202D01*
X0107206Y0043151D01*
X0107179Y0043102D01*
X0107150Y0043056D01*
X0107117Y0043011D01*
X0107080Y0042969D01*
X0107042Y0042929D01*
X0107000Y0042892D01*
X0106956Y0042858D01*
X0106909Y0042828D01*
X0106861Y0042801D01*
X0106811Y0042777D01*
X0106759Y0042757D01*
X0106706Y0042740D01*
X0106652Y0042728D01*
X0106597Y0042719D01*
X0106542Y0042714D01*
X0106486Y0042713D01*
X0106431Y0042716D01*
X0106376Y0042723D01*
X0106321Y0042734D01*
X0106267Y0042748D01*
X0106215Y0042766D01*
X0106164Y0042788D01*
X0106115Y0042814D01*
X0106067Y0042843D01*
X0106022Y0042875D01*
X0105979Y0042910D01*
X0105939Y0042948D01*
X0105901Y0042989D01*
X0105867Y0043033D01*
X0105835Y0043079D01*
X0105807Y0043127D01*
X0105783Y0043177D01*
X0105762Y0043228D01*
X0105744Y0043281D01*
X0105731Y0043335D01*
X0105721Y0043389D01*
X0105715Y0043444D01*
X0105713Y0043500D01*
X0086000Y0021000D02*
X0086000Y0006000D01*
X0086000Y0021000D02*
X0031000Y0021000D01*
X0031000Y0006000D01*
X0072713Y0070500D02*
X0072715Y0070556D01*
X0072721Y0070611D01*
X0072731Y0070665D01*
X0072744Y0070719D01*
X0072762Y0070772D01*
X0072783Y0070823D01*
X0072807Y0070873D01*
X0072835Y0070921D01*
X0072867Y0070967D01*
X0072901Y0071011D01*
X0072939Y0071052D01*
X0072979Y0071090D01*
X0073022Y0071125D01*
X0073067Y0071157D01*
X0073115Y0071186D01*
X0073164Y0071212D01*
X0073215Y0071234D01*
X0073267Y0071252D01*
X0073321Y0071266D01*
X0073376Y0071277D01*
X0073431Y0071284D01*
X0073486Y0071287D01*
X0073542Y0071286D01*
X0073597Y0071281D01*
X0073652Y0071272D01*
X0073706Y0071260D01*
X0073759Y0071243D01*
X0073811Y0071223D01*
X0073861Y0071199D01*
X0073909Y0071172D01*
X0073956Y0071142D01*
X0074000Y0071108D01*
X0074042Y0071071D01*
X0074080Y0071031D01*
X0074117Y0070989D01*
X0074150Y0070944D01*
X0074179Y0070898D01*
X0074206Y0070849D01*
X0074228Y0070798D01*
X0074248Y0070746D01*
X0074263Y0070692D01*
X0074275Y0070638D01*
X0074283Y0070583D01*
X0074287Y0070528D01*
X0074287Y0070472D01*
X0074283Y0070417D01*
X0074275Y0070362D01*
X0074263Y0070308D01*
X0074248Y0070254D01*
X0074228Y0070202D01*
X0074206Y0070151D01*
X0074179Y0070102D01*
X0074150Y0070056D01*
X0074117Y0070011D01*
X0074080Y0069969D01*
X0074042Y0069929D01*
X0074000Y0069892D01*
X0073956Y0069858D01*
X0073909Y0069828D01*
X0073861Y0069801D01*
X0073811Y0069777D01*
X0073759Y0069757D01*
X0073706Y0069740D01*
X0073652Y0069728D01*
X0073597Y0069719D01*
X0073542Y0069714D01*
X0073486Y0069713D01*
X0073431Y0069716D01*
X0073376Y0069723D01*
X0073321Y0069734D01*
X0073267Y0069748D01*
X0073215Y0069766D01*
X0073164Y0069788D01*
X0073115Y0069814D01*
X0073067Y0069843D01*
X0073022Y0069875D01*
X0072979Y0069910D01*
X0072939Y0069948D01*
X0072901Y0069989D01*
X0072867Y0070033D01*
X0072835Y0070079D01*
X0072807Y0070127D01*
X0072783Y0070177D01*
X0072762Y0070228D01*
X0072744Y0070281D01*
X0072731Y0070335D01*
X0072721Y0070389D01*
X0072715Y0070444D01*
X0072713Y0070500D01*
X0077713Y0024000D02*
X0077715Y0024056D01*
X0077721Y0024111D01*
X0077731Y0024165D01*
X0077744Y0024219D01*
X0077762Y0024272D01*
X0077783Y0024323D01*
X0077807Y0024373D01*
X0077835Y0024421D01*
X0077867Y0024467D01*
X0077901Y0024511D01*
X0077939Y0024552D01*
X0077979Y0024590D01*
X0078022Y0024625D01*
X0078067Y0024657D01*
X0078115Y0024686D01*
X0078164Y0024712D01*
X0078215Y0024734D01*
X0078267Y0024752D01*
X0078321Y0024766D01*
X0078376Y0024777D01*
X0078431Y0024784D01*
X0078486Y0024787D01*
X0078542Y0024786D01*
X0078597Y0024781D01*
X0078652Y0024772D01*
X0078706Y0024760D01*
X0078759Y0024743D01*
X0078811Y0024723D01*
X0078861Y0024699D01*
X0078909Y0024672D01*
X0078956Y0024642D01*
X0079000Y0024608D01*
X0079042Y0024571D01*
X0079080Y0024531D01*
X0079117Y0024489D01*
X0079150Y0024444D01*
X0079179Y0024398D01*
X0079206Y0024349D01*
X0079228Y0024298D01*
X0079248Y0024246D01*
X0079263Y0024192D01*
X0079275Y0024138D01*
X0079283Y0024083D01*
X0079287Y0024028D01*
X0079287Y0023972D01*
X0079283Y0023917D01*
X0079275Y0023862D01*
X0079263Y0023808D01*
X0079248Y0023754D01*
X0079228Y0023702D01*
X0079206Y0023651D01*
X0079179Y0023602D01*
X0079150Y0023556D01*
X0079117Y0023511D01*
X0079080Y0023469D01*
X0079042Y0023429D01*
X0079000Y0023392D01*
X0078956Y0023358D01*
X0078909Y0023328D01*
X0078861Y0023301D01*
X0078811Y0023277D01*
X0078759Y0023257D01*
X0078706Y0023240D01*
X0078652Y0023228D01*
X0078597Y0023219D01*
X0078542Y0023214D01*
X0078486Y0023213D01*
X0078431Y0023216D01*
X0078376Y0023223D01*
X0078321Y0023234D01*
X0078267Y0023248D01*
X0078215Y0023266D01*
X0078164Y0023288D01*
X0078115Y0023314D01*
X0078067Y0023343D01*
X0078022Y0023375D01*
X0077979Y0023410D01*
X0077939Y0023448D01*
X0077901Y0023489D01*
X0077867Y0023533D01*
X0077835Y0023579D01*
X0077807Y0023627D01*
X0077783Y0023677D01*
X0077762Y0023728D01*
X0077744Y0023781D01*
X0077731Y0023835D01*
X0077721Y0023889D01*
X0077715Y0023944D01*
X0077713Y0024000D01*
X0108500Y0081000D02*
X0108500Y0153500D01*
X0008500Y0153500D01*
X0008500Y0081000D01*
X0108500Y0081000D01*
D12*
X0065788Y0078200D02*
X0065032Y0078200D01*
X0064978Y0078198D01*
X0064924Y0078192D01*
X0064871Y0078183D01*
X0064819Y0078169D01*
X0064768Y0078152D01*
X0064718Y0078132D01*
X0064670Y0078108D01*
X0064623Y0078080D01*
X0064579Y0078049D01*
X0064537Y0078015D01*
X0064497Y0077979D01*
X0064461Y0077939D01*
X0064427Y0077897D01*
X0064396Y0077853D01*
X0064368Y0077806D01*
X0064344Y0077758D01*
X0064324Y0077708D01*
X0064307Y0077657D01*
X0064293Y0077605D01*
X0064284Y0077552D01*
X0064278Y0077498D01*
X0064276Y0077444D01*
X0064277Y0077444D02*
X0064277Y0075556D01*
X0064276Y0075556D02*
X0064278Y0075502D01*
X0064284Y0075448D01*
X0064293Y0075395D01*
X0064307Y0075343D01*
X0064324Y0075292D01*
X0064344Y0075242D01*
X0064368Y0075194D01*
X0064396Y0075147D01*
X0064427Y0075103D01*
X0064461Y0075061D01*
X0064497Y0075021D01*
X0064537Y0074985D01*
X0064579Y0074951D01*
X0064623Y0074920D01*
X0064670Y0074892D01*
X0064718Y0074868D01*
X0064768Y0074848D01*
X0064819Y0074831D01*
X0064871Y0074817D01*
X0064924Y0074808D01*
X0064978Y0074802D01*
X0065032Y0074800D01*
X0065788Y0074800D01*
X0062752Y0074422D02*
X0061241Y0074422D01*
X0059821Y0075556D02*
X0059819Y0075502D01*
X0059813Y0075448D01*
X0059804Y0075395D01*
X0059790Y0075343D01*
X0059773Y0075292D01*
X0059753Y0075242D01*
X0059729Y0075194D01*
X0059701Y0075147D01*
X0059670Y0075103D01*
X0059636Y0075061D01*
X0059600Y0075021D01*
X0059560Y0074985D01*
X0059518Y0074951D01*
X0059474Y0074920D01*
X0059427Y0074892D01*
X0059379Y0074868D01*
X0059329Y0074848D01*
X0059278Y0074831D01*
X0059226Y0074817D01*
X0059173Y0074808D01*
X0059119Y0074802D01*
X0059065Y0074800D01*
X0059820Y0075556D02*
X0059818Y0075609D01*
X0059813Y0075662D01*
X0059804Y0075714D01*
X0059791Y0075766D01*
X0059775Y0075816D01*
X0059755Y0075865D01*
X0059732Y0075913D01*
X0059705Y0075959D01*
X0059676Y0076004D01*
X0059643Y0076046D01*
X0059608Y0076085D01*
X0059570Y0076122D01*
X0059530Y0076157D01*
X0059487Y0076188D01*
X0059442Y0076217D01*
X0059443Y0076217D02*
X0058404Y0076783D01*
X0058782Y0078200D02*
X0058852Y0078198D01*
X0058922Y0078193D01*
X0058992Y0078184D01*
X0059061Y0078172D01*
X0059129Y0078157D01*
X0059197Y0078138D01*
X0059263Y0078116D01*
X0059329Y0078090D01*
X0059393Y0078062D01*
X0059455Y0078030D01*
X0059516Y0077995D01*
X0059575Y0077957D01*
X0059632Y0077917D01*
X0058405Y0076783D02*
X0058360Y0076812D01*
X0058317Y0076843D01*
X0058277Y0076878D01*
X0058239Y0076915D01*
X0058204Y0076954D01*
X0058171Y0076996D01*
X0058142Y0077041D01*
X0058115Y0077087D01*
X0058092Y0077135D01*
X0058072Y0077184D01*
X0058056Y0077234D01*
X0058043Y0077286D01*
X0058034Y0077338D01*
X0058029Y0077391D01*
X0058027Y0077444D01*
X0058026Y0077444D02*
X0058028Y0077498D01*
X0058034Y0077552D01*
X0058043Y0077605D01*
X0058057Y0077657D01*
X0058074Y0077708D01*
X0058094Y0077758D01*
X0058118Y0077806D01*
X0058146Y0077853D01*
X0058177Y0077897D01*
X0058211Y0077939D01*
X0058247Y0077979D01*
X0058287Y0078015D01*
X0058329Y0078049D01*
X0058373Y0078080D01*
X0058420Y0078108D01*
X0058468Y0078132D01*
X0058518Y0078152D01*
X0058569Y0078169D01*
X0058621Y0078183D01*
X0058674Y0078192D01*
X0058728Y0078198D01*
X0058782Y0078200D01*
X0057932Y0075272D02*
X0057989Y0075218D01*
X0058048Y0075166D01*
X0058110Y0075117D01*
X0058174Y0075072D01*
X0058241Y0075029D01*
X0058309Y0074990D01*
X0058379Y0074955D01*
X0058451Y0074923D01*
X0058525Y0074894D01*
X0058599Y0074869D01*
X0058675Y0074848D01*
X0058752Y0074831D01*
X0058830Y0074817D01*
X0058908Y0074808D01*
X0058986Y0074802D01*
X0059065Y0074800D01*
X0056573Y0074800D02*
X0055062Y0074800D01*
X0055062Y0078200D01*
X0056573Y0078200D01*
X0056196Y0076689D02*
X0055062Y0076689D01*
X0053101Y0078200D02*
X0053101Y0074800D01*
X0051212Y0078200D01*
X0051212Y0074800D01*
X0053896Y0026200D02*
X0054840Y0026200D01*
X0053896Y0026200D02*
X0053896Y0022800D01*
X0054840Y0022800D01*
X0054899Y0022802D01*
X0054958Y0022807D01*
X0055017Y0022817D01*
X0055075Y0022830D01*
X0055132Y0022846D01*
X0055188Y0022866D01*
X0055242Y0022890D01*
X0055295Y0022917D01*
X0055346Y0022947D01*
X0055395Y0022980D01*
X0055442Y0023017D01*
X0055486Y0023056D01*
X0055528Y0023098D01*
X0055567Y0023142D01*
X0055604Y0023189D01*
X0055637Y0023238D01*
X0055667Y0023289D01*
X0055694Y0023342D01*
X0055718Y0023396D01*
X0055738Y0023452D01*
X0055754Y0023509D01*
X0055767Y0023567D01*
X0055777Y0023626D01*
X0055782Y0023685D01*
X0055784Y0023744D01*
X0055784Y0025256D01*
X0055782Y0025315D01*
X0055777Y0025374D01*
X0055767Y0025433D01*
X0055754Y0025491D01*
X0055738Y0025548D01*
X0055718Y0025604D01*
X0055694Y0025658D01*
X0055667Y0025711D01*
X0055637Y0025762D01*
X0055604Y0025811D01*
X0055567Y0025858D01*
X0055528Y0025902D01*
X0055486Y0025944D01*
X0055442Y0025983D01*
X0055395Y0026020D01*
X0055346Y0026053D01*
X0055295Y0026083D01*
X0055242Y0026110D01*
X0055188Y0026134D01*
X0055132Y0026154D01*
X0055075Y0026170D01*
X0055017Y0026183D01*
X0054958Y0026193D01*
X0054899Y0026198D01*
X0054840Y0026200D01*
X0057812Y0026200D02*
X0057812Y0022800D01*
X0058757Y0022800D01*
X0058817Y0022802D01*
X0058878Y0022808D01*
X0058937Y0022817D01*
X0058996Y0022831D01*
X0059054Y0022848D01*
X0059111Y0022869D01*
X0059167Y0022893D01*
X0059220Y0022921D01*
X0059272Y0022953D01*
X0059322Y0022987D01*
X0059369Y0023025D01*
X0059414Y0023066D01*
X0059456Y0023109D01*
X0059495Y0023155D01*
X0059531Y0023204D01*
X0059564Y0023255D01*
X0059594Y0023307D01*
X0059620Y0023362D01*
X0059643Y0023418D01*
X0059662Y0023475D01*
X0059677Y0023534D01*
X0059689Y0023593D01*
X0059697Y0023653D01*
X0059701Y0023714D01*
X0059701Y0023774D01*
X0059697Y0023835D01*
X0059689Y0023895D01*
X0059677Y0023954D01*
X0059662Y0024013D01*
X0059643Y0024070D01*
X0059620Y0024126D01*
X0059594Y0024181D01*
X0059564Y0024233D01*
X0059531Y0024284D01*
X0059495Y0024333D01*
X0059456Y0024379D01*
X0059414Y0024422D01*
X0059369Y0024463D01*
X0059322Y0024501D01*
X0059272Y0024535D01*
X0059220Y0024567D01*
X0059167Y0024595D01*
X0059111Y0024619D01*
X0059054Y0024640D01*
X0058996Y0024657D01*
X0058937Y0024671D01*
X0058878Y0024680D01*
X0058817Y0024686D01*
X0058757Y0024688D01*
X0058757Y0024689D02*
X0057812Y0024689D01*
X0058757Y0024688D02*
X0058811Y0024690D01*
X0058865Y0024696D01*
X0058918Y0024705D01*
X0058970Y0024719D01*
X0059021Y0024736D01*
X0059071Y0024756D01*
X0059119Y0024780D01*
X0059166Y0024808D01*
X0059210Y0024839D01*
X0059252Y0024873D01*
X0059292Y0024909D01*
X0059328Y0024949D01*
X0059362Y0024991D01*
X0059393Y0025035D01*
X0059421Y0025082D01*
X0059445Y0025130D01*
X0059465Y0025180D01*
X0059482Y0025231D01*
X0059496Y0025283D01*
X0059505Y0025336D01*
X0059511Y0025390D01*
X0059513Y0025444D01*
X0059511Y0025498D01*
X0059505Y0025552D01*
X0059496Y0025605D01*
X0059482Y0025657D01*
X0059465Y0025708D01*
X0059445Y0025758D01*
X0059421Y0025806D01*
X0059393Y0025853D01*
X0059362Y0025897D01*
X0059328Y0025939D01*
X0059292Y0025979D01*
X0059252Y0026015D01*
X0059210Y0026049D01*
X0059166Y0026080D01*
X0059119Y0026108D01*
X0059071Y0026132D01*
X0059021Y0026152D01*
X0058970Y0026169D01*
X0058918Y0026183D01*
X0058865Y0026192D01*
X0058811Y0026198D01*
X0058757Y0026200D01*
X0057812Y0026200D01*
X0061216Y0025256D02*
X0061216Y0025067D01*
X0061215Y0025067D02*
X0061217Y0025013D01*
X0061223Y0024959D01*
X0061232Y0024906D01*
X0061246Y0024854D01*
X0061263Y0024803D01*
X0061283Y0024753D01*
X0061307Y0024705D01*
X0061335Y0024658D01*
X0061366Y0024614D01*
X0061400Y0024572D01*
X0061436Y0024532D01*
X0061476Y0024496D01*
X0061518Y0024462D01*
X0061562Y0024431D01*
X0061609Y0024403D01*
X0061657Y0024379D01*
X0061707Y0024359D01*
X0061758Y0024342D01*
X0061810Y0024328D01*
X0061863Y0024319D01*
X0061917Y0024313D01*
X0061971Y0024311D01*
X0063104Y0024311D01*
X0063104Y0025256D01*
X0063102Y0025316D01*
X0063096Y0025377D01*
X0063087Y0025436D01*
X0063073Y0025495D01*
X0063056Y0025553D01*
X0063035Y0025610D01*
X0063011Y0025666D01*
X0062983Y0025719D01*
X0062951Y0025771D01*
X0062917Y0025821D01*
X0062879Y0025868D01*
X0062838Y0025913D01*
X0062795Y0025955D01*
X0062749Y0025994D01*
X0062700Y0026030D01*
X0062649Y0026063D01*
X0062597Y0026093D01*
X0062542Y0026119D01*
X0062486Y0026142D01*
X0062429Y0026161D01*
X0062370Y0026176D01*
X0062311Y0026188D01*
X0062251Y0026196D01*
X0062190Y0026200D01*
X0062130Y0026200D01*
X0062069Y0026196D01*
X0062009Y0026188D01*
X0061950Y0026176D01*
X0061891Y0026161D01*
X0061834Y0026142D01*
X0061778Y0026119D01*
X0061723Y0026093D01*
X0061671Y0026063D01*
X0061620Y0026030D01*
X0061571Y0025994D01*
X0061525Y0025955D01*
X0061482Y0025913D01*
X0061441Y0025868D01*
X0061403Y0025821D01*
X0061369Y0025771D01*
X0061337Y0025719D01*
X0061309Y0025666D01*
X0061285Y0025610D01*
X0061264Y0025553D01*
X0061247Y0025495D01*
X0061233Y0025436D01*
X0061224Y0025377D01*
X0061218Y0025316D01*
X0061216Y0025256D01*
X0063104Y0024311D02*
X0063102Y0024234D01*
X0063096Y0024158D01*
X0063087Y0024082D01*
X0063073Y0024007D01*
X0063056Y0023932D01*
X0063035Y0023859D01*
X0063010Y0023786D01*
X0062982Y0023715D01*
X0062950Y0023646D01*
X0062914Y0023578D01*
X0062875Y0023512D01*
X0062833Y0023448D01*
X0062788Y0023386D01*
X0062739Y0023327D01*
X0062688Y0023270D01*
X0062634Y0023216D01*
X0062577Y0023165D01*
X0062518Y0023116D01*
X0062456Y0023071D01*
X0062392Y0023029D01*
X0062326Y0022990D01*
X0062258Y0022954D01*
X0062189Y0022922D01*
X0062118Y0022894D01*
X0062045Y0022869D01*
X0061972Y0022848D01*
X0061897Y0022831D01*
X0061822Y0022817D01*
X0061746Y0022808D01*
X0061670Y0022802D01*
X0061593Y0022800D01*
D13*
X0075468Y0070646D02*
X0075470Y0070685D01*
X0075476Y0070724D01*
X0075486Y0070762D01*
X0075499Y0070799D01*
X0075516Y0070834D01*
X0075536Y0070868D01*
X0075560Y0070899D01*
X0075587Y0070928D01*
X0075616Y0070954D01*
X0075648Y0070977D01*
X0075682Y0070997D01*
X0075718Y0071013D01*
X0075755Y0071025D01*
X0075794Y0071034D01*
X0075833Y0071039D01*
X0075872Y0071040D01*
X0075911Y0071037D01*
X0075950Y0071030D01*
X0075987Y0071019D01*
X0076024Y0071005D01*
X0076059Y0070987D01*
X0076092Y0070966D01*
X0076123Y0070941D01*
X0076151Y0070914D01*
X0076176Y0070884D01*
X0076198Y0070851D01*
X0076217Y0070817D01*
X0076232Y0070781D01*
X0076244Y0070743D01*
X0076252Y0070705D01*
X0076256Y0070666D01*
X0076256Y0070626D01*
X0076252Y0070587D01*
X0076244Y0070549D01*
X0076232Y0070511D01*
X0076217Y0070475D01*
X0076198Y0070441D01*
X0076176Y0070408D01*
X0076151Y0070378D01*
X0076123Y0070351D01*
X0076092Y0070326D01*
X0076059Y0070305D01*
X0076024Y0070287D01*
X0075987Y0070273D01*
X0075950Y0070262D01*
X0075911Y0070255D01*
X0075872Y0070252D01*
X0075833Y0070253D01*
X0075794Y0070258D01*
X0075755Y0070267D01*
X0075718Y0070279D01*
X0075682Y0070295D01*
X0075648Y0070315D01*
X0075616Y0070338D01*
X0075587Y0070364D01*
X0075560Y0070393D01*
X0075536Y0070424D01*
X0075516Y0070458D01*
X0075499Y0070493D01*
X0075486Y0070530D01*
X0075476Y0070568D01*
X0075470Y0070607D01*
X0075468Y0070646D01*
D14*
X0011813Y0024529D02*
X0011813Y0023557D01*
X0015313Y0023557D01*
X0015313Y0024529D01*
X0015311Y0024590D01*
X0015305Y0024651D01*
X0015296Y0024711D01*
X0015282Y0024771D01*
X0015265Y0024829D01*
X0015245Y0024887D01*
X0015220Y0024943D01*
X0015193Y0024997D01*
X0015162Y0025050D01*
X0015127Y0025100D01*
X0015090Y0025149D01*
X0015050Y0025194D01*
X0015006Y0025238D01*
X0014961Y0025278D01*
X0014912Y0025315D01*
X0014862Y0025350D01*
X0014809Y0025381D01*
X0014755Y0025408D01*
X0014699Y0025433D01*
X0014641Y0025453D01*
X0014583Y0025470D01*
X0014523Y0025484D01*
X0014463Y0025493D01*
X0014402Y0025499D01*
X0014341Y0025501D01*
X0014341Y0025502D02*
X0012785Y0025502D01*
X0012785Y0025501D02*
X0012724Y0025499D01*
X0012663Y0025493D01*
X0012603Y0025484D01*
X0012543Y0025470D01*
X0012485Y0025453D01*
X0012427Y0025433D01*
X0012371Y0025408D01*
X0012317Y0025381D01*
X0012264Y0025350D01*
X0012214Y0025315D01*
X0012165Y0025278D01*
X0012120Y0025238D01*
X0012076Y0025194D01*
X0012036Y0025149D01*
X0011999Y0025100D01*
X0011964Y0025050D01*
X0011933Y0024997D01*
X0011906Y0024943D01*
X0011881Y0024887D01*
X0011861Y0024829D01*
X0011844Y0024771D01*
X0011830Y0024711D01*
X0011821Y0024651D01*
X0011815Y0024590D01*
X0011813Y0024529D01*
X0013369Y0028930D02*
X0013327Y0028971D01*
X0013283Y0029010D01*
X0013236Y0029045D01*
X0013188Y0029078D01*
X0013137Y0029108D01*
X0013085Y0029134D01*
X0013031Y0029157D01*
X0012976Y0029177D01*
X0012920Y0029193D01*
X0012863Y0029206D01*
X0012805Y0029215D01*
X0012747Y0029220D01*
X0012688Y0029222D01*
X0013369Y0028930D02*
X0015313Y0027277D01*
X0015313Y0029222D01*
X0016650Y0031217D02*
X0010350Y0031217D01*
X0010350Y0045783D01*
X0016650Y0045783D01*
X0016650Y0031217D01*
X0011813Y0028347D02*
X0011815Y0028283D01*
X0011820Y0028219D01*
X0011829Y0028155D01*
X0011842Y0028092D01*
X0011859Y0028030D01*
X0011878Y0027969D01*
X0011902Y0027909D01*
X0011928Y0027851D01*
X0011958Y0027794D01*
X0011992Y0027739D01*
X0012028Y0027686D01*
X0012067Y0027635D01*
X0012109Y0027587D01*
X0012154Y0027540D01*
X0012201Y0027497D01*
X0012251Y0027456D01*
X0012303Y0027419D01*
X0012357Y0027384D01*
X0012413Y0027352D01*
X0012471Y0027324D01*
X0012530Y0027299D01*
X0012591Y0027278D01*
X0011813Y0028347D02*
X0011815Y0028404D01*
X0011820Y0028461D01*
X0011830Y0028518D01*
X0011843Y0028573D01*
X0011859Y0028628D01*
X0011880Y0028682D01*
X0011903Y0028734D01*
X0011930Y0028785D01*
X0011960Y0028833D01*
X0011994Y0028880D01*
X0012030Y0028924D01*
X0012069Y0028966D01*
X0012111Y0029005D01*
X0012155Y0029041D01*
X0012202Y0029075D01*
X0012251Y0029105D01*
X0012301Y0029132D01*
X0012353Y0029155D01*
X0012407Y0029176D01*
X0012462Y0029192D01*
X0012517Y0029205D01*
X0012574Y0029215D01*
X0012631Y0029220D01*
X0012688Y0029222D01*
X0011813Y0054057D02*
X0011813Y0055029D01*
X0011813Y0054057D02*
X0015313Y0054057D01*
X0015313Y0055029D01*
X0015311Y0055090D01*
X0015305Y0055151D01*
X0015296Y0055211D01*
X0015282Y0055271D01*
X0015265Y0055329D01*
X0015245Y0055387D01*
X0015220Y0055443D01*
X0015193Y0055497D01*
X0015162Y0055550D01*
X0015127Y0055600D01*
X0015090Y0055649D01*
X0015050Y0055694D01*
X0015006Y0055738D01*
X0014961Y0055778D01*
X0014912Y0055815D01*
X0014862Y0055850D01*
X0014809Y0055881D01*
X0014755Y0055908D01*
X0014699Y0055933D01*
X0014641Y0055953D01*
X0014583Y0055970D01*
X0014523Y0055984D01*
X0014463Y0055993D01*
X0014402Y0055999D01*
X0014341Y0056001D01*
X0014341Y0056002D02*
X0012785Y0056002D01*
X0012785Y0056001D02*
X0012724Y0055999D01*
X0012663Y0055993D01*
X0012603Y0055984D01*
X0012543Y0055970D01*
X0012485Y0055953D01*
X0012427Y0055933D01*
X0012371Y0055908D01*
X0012317Y0055881D01*
X0012264Y0055850D01*
X0012214Y0055815D01*
X0012165Y0055778D01*
X0012120Y0055738D01*
X0012076Y0055694D01*
X0012036Y0055649D01*
X0011999Y0055600D01*
X0011964Y0055550D01*
X0011933Y0055497D01*
X0011906Y0055443D01*
X0011881Y0055387D01*
X0011861Y0055329D01*
X0011844Y0055271D01*
X0011830Y0055211D01*
X0011821Y0055151D01*
X0011815Y0055090D01*
X0011813Y0055029D01*
X0012591Y0057777D02*
X0011813Y0058749D01*
X0015313Y0058749D01*
X0015313Y0057777D02*
X0015313Y0059722D01*
X0016650Y0061217D02*
X0010350Y0061217D01*
X0010350Y0075783D01*
X0016650Y0075783D01*
X0016650Y0061217D01*
X0041059Y0061177D02*
X0041059Y0045823D01*
X0075941Y0045823D02*
X0075941Y0061177D01*
X0086000Y0061000D02*
X0086000Y0056000D01*
X0088500Y0053500D01*
X0086000Y0051000D01*
X0086000Y0046000D01*
X0088500Y0043500D01*
X0103500Y0043500D01*
X0106000Y0046000D01*
X0106000Y0051000D01*
X0103500Y0053500D01*
X0106000Y0056000D01*
X0106000Y0061000D01*
X0103500Y0063500D01*
X0106000Y0066000D01*
X0106000Y0071000D01*
X0103500Y0073500D01*
X0088500Y0073500D01*
X0086000Y0071000D01*
X0086000Y0066000D01*
X0088500Y0063500D01*
X0086000Y0061000D01*
D15*
X0080988Y0056545D02*
X0080988Y0054490D01*
X0080988Y0055517D02*
X0077288Y0055517D01*
X0078110Y0054490D01*
X0077288Y0052825D02*
X0079960Y0052825D01*
X0080023Y0052823D01*
X0080086Y0052817D01*
X0080149Y0052807D01*
X0080211Y0052794D01*
X0080272Y0052777D01*
X0080331Y0052756D01*
X0080390Y0052731D01*
X0080446Y0052703D01*
X0080501Y0052671D01*
X0080554Y0052636D01*
X0080604Y0052598D01*
X0080653Y0052557D01*
X0080698Y0052513D01*
X0080741Y0052466D01*
X0080780Y0052417D01*
X0080817Y0052365D01*
X0080850Y0052311D01*
X0080880Y0052255D01*
X0080907Y0052198D01*
X0080930Y0052139D01*
X0080949Y0052078D01*
X0080964Y0052017D01*
X0080976Y0051955D01*
X0080984Y0051892D01*
X0080988Y0051829D01*
X0080988Y0051765D01*
X0080984Y0051702D01*
X0080976Y0051639D01*
X0080964Y0051577D01*
X0080949Y0051516D01*
X0080930Y0051455D01*
X0080907Y0051396D01*
X0080880Y0051339D01*
X0080850Y0051283D01*
X0080817Y0051229D01*
X0080780Y0051177D01*
X0080741Y0051128D01*
X0080698Y0051081D01*
X0080653Y0051037D01*
X0080604Y0050996D01*
X0080554Y0050958D01*
X0080501Y0050923D01*
X0080446Y0050891D01*
X0080390Y0050863D01*
X0080331Y0050838D01*
X0080272Y0050817D01*
X0080211Y0050800D01*
X0080149Y0050787D01*
X0080086Y0050777D01*
X0080023Y0050771D01*
X0079960Y0050769D01*
X0079960Y0050770D02*
X0077288Y0050770D01*
X0025350Y0053650D02*
X0021650Y0053650D01*
X0021650Y0054678D01*
X0021652Y0054741D01*
X0021658Y0054804D01*
X0021668Y0054867D01*
X0021681Y0054929D01*
X0021698Y0054990D01*
X0021719Y0055049D01*
X0021744Y0055108D01*
X0021772Y0055164D01*
X0021804Y0055219D01*
X0021839Y0055272D01*
X0021877Y0055322D01*
X0021918Y0055371D01*
X0021962Y0055416D01*
X0022009Y0055459D01*
X0022058Y0055498D01*
X0022110Y0055535D01*
X0022164Y0055568D01*
X0022220Y0055598D01*
X0022277Y0055625D01*
X0022336Y0055648D01*
X0022397Y0055667D01*
X0022458Y0055682D01*
X0022520Y0055694D01*
X0022583Y0055702D01*
X0022646Y0055706D01*
X0022710Y0055706D01*
X0022773Y0055702D01*
X0022836Y0055694D01*
X0022898Y0055682D01*
X0022959Y0055667D01*
X0023020Y0055648D01*
X0023079Y0055625D01*
X0023136Y0055598D01*
X0023192Y0055568D01*
X0023246Y0055535D01*
X0023298Y0055498D01*
X0023347Y0055459D01*
X0023394Y0055416D01*
X0023438Y0055371D01*
X0023479Y0055322D01*
X0023517Y0055272D01*
X0023552Y0055219D01*
X0023584Y0055164D01*
X0023612Y0055108D01*
X0023637Y0055049D01*
X0023658Y0054990D01*
X0023675Y0054929D01*
X0023688Y0054867D01*
X0023698Y0054804D01*
X0023704Y0054741D01*
X0023706Y0054678D01*
X0023706Y0053650D01*
X0023706Y0054883D02*
X0025350Y0055706D01*
X0025350Y0057228D02*
X0025350Y0059283D01*
X0025350Y0058255D02*
X0021650Y0058255D01*
X0022472Y0057228D01*
X0025350Y0029283D02*
X0025350Y0027228D01*
X0023294Y0028975D01*
X0021650Y0028358D02*
X0021652Y0028290D01*
X0021658Y0028222D01*
X0021667Y0028155D01*
X0021681Y0028089D01*
X0021698Y0028023D01*
X0021719Y0027958D01*
X0021744Y0027895D01*
X0021772Y0027833D01*
X0021804Y0027773D01*
X0021839Y0027715D01*
X0021877Y0027659D01*
X0021919Y0027605D01*
X0021963Y0027554D01*
X0022011Y0027506D01*
X0022061Y0027460D01*
X0022113Y0027417D01*
X0022168Y0027377D01*
X0022225Y0027340D01*
X0022284Y0027307D01*
X0022345Y0027277D01*
X0022408Y0027251D01*
X0022472Y0027228D01*
X0023295Y0028976D02*
X0023251Y0029019D01*
X0023204Y0029060D01*
X0023155Y0029097D01*
X0023104Y0029132D01*
X0023050Y0029163D01*
X0022995Y0029191D01*
X0022938Y0029215D01*
X0022880Y0029236D01*
X0022820Y0029253D01*
X0022760Y0029267D01*
X0022699Y0029276D01*
X0022637Y0029282D01*
X0022575Y0029284D01*
X0022575Y0029283D02*
X0022517Y0029281D01*
X0022459Y0029276D01*
X0022402Y0029267D01*
X0022345Y0029254D01*
X0022289Y0029238D01*
X0022234Y0029218D01*
X0022181Y0029195D01*
X0022129Y0029169D01*
X0022079Y0029139D01*
X0022031Y0029106D01*
X0021985Y0029071D01*
X0021942Y0029032D01*
X0021901Y0028991D01*
X0021862Y0028948D01*
X0021827Y0028902D01*
X0021794Y0028854D01*
X0021764Y0028804D01*
X0021738Y0028752D01*
X0021715Y0028699D01*
X0021695Y0028644D01*
X0021679Y0028588D01*
X0021666Y0028531D01*
X0021657Y0028474D01*
X0021652Y0028416D01*
X0021650Y0028358D01*
X0021650Y0024678D02*
X0021650Y0023650D01*
X0025350Y0023650D01*
X0023706Y0023650D02*
X0023706Y0024678D01*
X0023706Y0024883D02*
X0025350Y0025706D01*
X0023706Y0024678D02*
X0023704Y0024741D01*
X0023698Y0024804D01*
X0023688Y0024867D01*
X0023675Y0024929D01*
X0023658Y0024990D01*
X0023637Y0025049D01*
X0023612Y0025108D01*
X0023584Y0025164D01*
X0023552Y0025219D01*
X0023517Y0025272D01*
X0023479Y0025322D01*
X0023438Y0025371D01*
X0023394Y0025416D01*
X0023347Y0025459D01*
X0023298Y0025498D01*
X0023246Y0025535D01*
X0023192Y0025568D01*
X0023136Y0025598D01*
X0023079Y0025625D01*
X0023020Y0025648D01*
X0022959Y0025667D01*
X0022898Y0025682D01*
X0022836Y0025694D01*
X0022773Y0025702D01*
X0022710Y0025706D01*
X0022646Y0025706D01*
X0022583Y0025702D01*
X0022520Y0025694D01*
X0022458Y0025682D01*
X0022397Y0025667D01*
X0022336Y0025648D01*
X0022277Y0025625D01*
X0022220Y0025598D01*
X0022164Y0025568D01*
X0022110Y0025535D01*
X0022058Y0025498D01*
X0022009Y0025459D01*
X0021962Y0025416D01*
X0021918Y0025371D01*
X0021877Y0025322D01*
X0021839Y0025272D01*
X0021804Y0025219D01*
X0021772Y0025164D01*
X0021744Y0025108D01*
X0021719Y0025049D01*
X0021698Y0024990D01*
X0021681Y0024929D01*
X0021668Y0024867D01*
X0021658Y0024804D01*
X0021652Y0024741D01*
X0021650Y0024678D01*
D16*
X0013500Y0037909D03*
X0013500Y0067909D03*
D17*
X0013500Y0069091D03*
X0013500Y0039091D03*
M02*
