G75*
%MOIN*%
%OFA0B0*%
%FSLAX25Y25*%
%IPPOS*%
%LPD*%
%AMOC8*
5,1,8,0,0,1.08239X$1,22.5*
%
%ADD10R,0.08400X0.15800*%
%ADD11C,0.09400*%
%ADD12C,0.16548*%
%ADD13C,0.00791*%
%ADD14R,0.07800X0.07800*%
%ADD15C,0.07800*%
%ADD16R,0.05524X0.05524*%
%ADD17R,0.06706X0.05918*%
%ADD18C,0.03778*%
D10*
X0038500Y0012000D03*
X0048500Y0012000D03*
X0058500Y0012000D03*
X0068500Y0012000D03*
X0078500Y0012000D03*
D11*
X0082244Y0088500D03*
X0082244Y0102280D03*
X0066496Y0102280D03*
X0066496Y0088500D03*
X0050748Y0088500D03*
X0050748Y0102280D03*
X0035000Y0088500D03*
D12*
X0019252Y0141650D03*
X0097992Y0141650D03*
D13*
X0072314Y0066910D02*
X0072314Y0059420D01*
X0072314Y0066910D02*
X0074686Y0066910D01*
X0074686Y0059420D01*
X0072314Y0059420D01*
X0072314Y0060210D02*
X0074686Y0060210D01*
X0074686Y0061000D02*
X0072314Y0061000D01*
X0072314Y0061790D02*
X0074686Y0061790D01*
X0074686Y0062580D02*
X0072314Y0062580D01*
X0072314Y0063370D02*
X0074686Y0063370D01*
X0074686Y0064160D02*
X0072314Y0064160D01*
X0072314Y0064950D02*
X0074686Y0064950D01*
X0074686Y0065740D02*
X0072314Y0065740D01*
X0072314Y0066530D02*
X0074686Y0066530D01*
X0067314Y0066910D02*
X0067314Y0059420D01*
X0067314Y0066910D02*
X0069686Y0066910D01*
X0069686Y0059420D01*
X0067314Y0059420D01*
X0067314Y0060210D02*
X0069686Y0060210D01*
X0069686Y0061000D02*
X0067314Y0061000D01*
X0067314Y0061790D02*
X0069686Y0061790D01*
X0069686Y0062580D02*
X0067314Y0062580D01*
X0067314Y0063370D02*
X0069686Y0063370D01*
X0069686Y0064160D02*
X0067314Y0064160D01*
X0067314Y0064950D02*
X0069686Y0064950D01*
X0069686Y0065740D02*
X0067314Y0065740D01*
X0067314Y0066530D02*
X0069686Y0066530D01*
X0062314Y0066910D02*
X0062314Y0059420D01*
X0062314Y0066910D02*
X0064686Y0066910D01*
X0064686Y0059420D01*
X0062314Y0059420D01*
X0062314Y0060210D02*
X0064686Y0060210D01*
X0064686Y0061000D02*
X0062314Y0061000D01*
X0062314Y0061790D02*
X0064686Y0061790D01*
X0064686Y0062580D02*
X0062314Y0062580D01*
X0062314Y0063370D02*
X0064686Y0063370D01*
X0064686Y0064160D02*
X0062314Y0064160D01*
X0062314Y0064950D02*
X0064686Y0064950D01*
X0064686Y0065740D02*
X0062314Y0065740D01*
X0062314Y0066530D02*
X0064686Y0066530D01*
X0057314Y0066910D02*
X0057314Y0059420D01*
X0057314Y0066910D02*
X0059686Y0066910D01*
X0059686Y0059420D01*
X0057314Y0059420D01*
X0057314Y0060210D02*
X0059686Y0060210D01*
X0059686Y0061000D02*
X0057314Y0061000D01*
X0057314Y0061790D02*
X0059686Y0061790D01*
X0059686Y0062580D02*
X0057314Y0062580D01*
X0057314Y0063370D02*
X0059686Y0063370D01*
X0059686Y0064160D02*
X0057314Y0064160D01*
X0057314Y0064950D02*
X0059686Y0064950D01*
X0059686Y0065740D02*
X0057314Y0065740D01*
X0057314Y0066530D02*
X0059686Y0066530D01*
X0052314Y0066910D02*
X0052314Y0059420D01*
X0052314Y0066910D02*
X0054686Y0066910D01*
X0054686Y0059420D01*
X0052314Y0059420D01*
X0052314Y0060210D02*
X0054686Y0060210D01*
X0054686Y0061000D02*
X0052314Y0061000D01*
X0052314Y0061790D02*
X0054686Y0061790D01*
X0054686Y0062580D02*
X0052314Y0062580D01*
X0052314Y0063370D02*
X0054686Y0063370D01*
X0054686Y0064160D02*
X0052314Y0064160D01*
X0052314Y0064950D02*
X0054686Y0064950D01*
X0054686Y0065740D02*
X0052314Y0065740D01*
X0052314Y0066530D02*
X0054686Y0066530D01*
X0047314Y0066910D02*
X0047314Y0059420D01*
X0047314Y0066910D02*
X0049686Y0066910D01*
X0049686Y0059420D01*
X0047314Y0059420D01*
X0047314Y0060210D02*
X0049686Y0060210D01*
X0049686Y0061000D02*
X0047314Y0061000D01*
X0047314Y0061790D02*
X0049686Y0061790D01*
X0049686Y0062580D02*
X0047314Y0062580D01*
X0047314Y0063370D02*
X0049686Y0063370D01*
X0049686Y0064160D02*
X0047314Y0064160D01*
X0047314Y0064950D02*
X0049686Y0064950D01*
X0049686Y0065740D02*
X0047314Y0065740D01*
X0047314Y0066530D02*
X0049686Y0066530D01*
X0042314Y0066910D02*
X0042314Y0059420D01*
X0042314Y0066910D02*
X0044686Y0066910D01*
X0044686Y0059420D01*
X0042314Y0059420D01*
X0042314Y0060210D02*
X0044686Y0060210D01*
X0044686Y0061000D02*
X0042314Y0061000D01*
X0042314Y0061790D02*
X0044686Y0061790D01*
X0044686Y0062580D02*
X0042314Y0062580D01*
X0042314Y0063370D02*
X0044686Y0063370D01*
X0044686Y0064160D02*
X0042314Y0064160D01*
X0042314Y0064950D02*
X0044686Y0064950D01*
X0044686Y0065740D02*
X0042314Y0065740D01*
X0042314Y0066530D02*
X0044686Y0066530D01*
X0042314Y0047580D02*
X0042314Y0040090D01*
X0042314Y0047580D02*
X0044686Y0047580D01*
X0044686Y0040090D01*
X0042314Y0040090D01*
X0042314Y0040880D02*
X0044686Y0040880D01*
X0044686Y0041670D02*
X0042314Y0041670D01*
X0042314Y0042460D02*
X0044686Y0042460D01*
X0044686Y0043250D02*
X0042314Y0043250D01*
X0042314Y0044040D02*
X0044686Y0044040D01*
X0044686Y0044830D02*
X0042314Y0044830D01*
X0042314Y0045620D02*
X0044686Y0045620D01*
X0044686Y0046410D02*
X0042314Y0046410D01*
X0042314Y0047200D02*
X0044686Y0047200D01*
X0047314Y0047580D02*
X0047314Y0040090D01*
X0047314Y0047580D02*
X0049686Y0047580D01*
X0049686Y0040090D01*
X0047314Y0040090D01*
X0047314Y0040880D02*
X0049686Y0040880D01*
X0049686Y0041670D02*
X0047314Y0041670D01*
X0047314Y0042460D02*
X0049686Y0042460D01*
X0049686Y0043250D02*
X0047314Y0043250D01*
X0047314Y0044040D02*
X0049686Y0044040D01*
X0049686Y0044830D02*
X0047314Y0044830D01*
X0047314Y0045620D02*
X0049686Y0045620D01*
X0049686Y0046410D02*
X0047314Y0046410D01*
X0047314Y0047200D02*
X0049686Y0047200D01*
X0052314Y0047580D02*
X0052314Y0040090D01*
X0052314Y0047580D02*
X0054686Y0047580D01*
X0054686Y0040090D01*
X0052314Y0040090D01*
X0052314Y0040880D02*
X0054686Y0040880D01*
X0054686Y0041670D02*
X0052314Y0041670D01*
X0052314Y0042460D02*
X0054686Y0042460D01*
X0054686Y0043250D02*
X0052314Y0043250D01*
X0052314Y0044040D02*
X0054686Y0044040D01*
X0054686Y0044830D02*
X0052314Y0044830D01*
X0052314Y0045620D02*
X0054686Y0045620D01*
X0054686Y0046410D02*
X0052314Y0046410D01*
X0052314Y0047200D02*
X0054686Y0047200D01*
X0057314Y0047580D02*
X0057314Y0040090D01*
X0057314Y0047580D02*
X0059686Y0047580D01*
X0059686Y0040090D01*
X0057314Y0040090D01*
X0057314Y0040880D02*
X0059686Y0040880D01*
X0059686Y0041670D02*
X0057314Y0041670D01*
X0057314Y0042460D02*
X0059686Y0042460D01*
X0059686Y0043250D02*
X0057314Y0043250D01*
X0057314Y0044040D02*
X0059686Y0044040D01*
X0059686Y0044830D02*
X0057314Y0044830D01*
X0057314Y0045620D02*
X0059686Y0045620D01*
X0059686Y0046410D02*
X0057314Y0046410D01*
X0057314Y0047200D02*
X0059686Y0047200D01*
X0062314Y0047580D02*
X0062314Y0040090D01*
X0062314Y0047580D02*
X0064686Y0047580D01*
X0064686Y0040090D01*
X0062314Y0040090D01*
X0062314Y0040880D02*
X0064686Y0040880D01*
X0064686Y0041670D02*
X0062314Y0041670D01*
X0062314Y0042460D02*
X0064686Y0042460D01*
X0064686Y0043250D02*
X0062314Y0043250D01*
X0062314Y0044040D02*
X0064686Y0044040D01*
X0064686Y0044830D02*
X0062314Y0044830D01*
X0062314Y0045620D02*
X0064686Y0045620D01*
X0064686Y0046410D02*
X0062314Y0046410D01*
X0062314Y0047200D02*
X0064686Y0047200D01*
X0067314Y0047580D02*
X0067314Y0040090D01*
X0067314Y0047580D02*
X0069686Y0047580D01*
X0069686Y0040090D01*
X0067314Y0040090D01*
X0067314Y0040880D02*
X0069686Y0040880D01*
X0069686Y0041670D02*
X0067314Y0041670D01*
X0067314Y0042460D02*
X0069686Y0042460D01*
X0069686Y0043250D02*
X0067314Y0043250D01*
X0067314Y0044040D02*
X0069686Y0044040D01*
X0069686Y0044830D02*
X0067314Y0044830D01*
X0067314Y0045620D02*
X0069686Y0045620D01*
X0069686Y0046410D02*
X0067314Y0046410D01*
X0067314Y0047200D02*
X0069686Y0047200D01*
X0072314Y0047580D02*
X0072314Y0040090D01*
X0072314Y0047580D02*
X0074686Y0047580D01*
X0074686Y0040090D01*
X0072314Y0040090D01*
X0072314Y0040880D02*
X0074686Y0040880D01*
X0074686Y0041670D02*
X0072314Y0041670D01*
X0072314Y0042460D02*
X0074686Y0042460D01*
X0074686Y0043250D02*
X0072314Y0043250D01*
X0072314Y0044040D02*
X0074686Y0044040D01*
X0074686Y0044830D02*
X0072314Y0044830D01*
X0072314Y0045620D02*
X0074686Y0045620D01*
X0074686Y0046410D02*
X0072314Y0046410D01*
X0072314Y0047200D02*
X0074686Y0047200D01*
D14*
X0101000Y0048500D03*
D15*
X0101000Y0058500D03*
X0101000Y0068500D03*
X0091000Y0068500D03*
X0091000Y0058500D03*
X0091000Y0048500D03*
D16*
X0013500Y0034366D03*
X0013500Y0042634D03*
X0013500Y0064366D03*
X0013500Y0072634D03*
D17*
X0023500Y0072240D03*
X0023500Y0064760D03*
X0036000Y0057240D03*
X0036000Y0049760D03*
X0023500Y0042240D03*
X0023500Y0034760D03*
D18*
X0033200Y0042550D03*
X0036500Y0034850D03*
X0045300Y0034850D03*
X0051350Y0057400D03*
X0072250Y0037600D03*
M02*
