G75*
%MOIN*%
%OFA0B0*%
%FSLAX25Y25*%
%IPPOS*%
%LPD*%
%AMOC8*
5,1,8,0,0,1.08239X$1,22.5*
%
%ADD10R,0.08400X0.15800*%
%ADD11C,0.09400*%
%ADD12C,0.16548*%
%ADD13C,0.00791*%
%ADD14R,0.07800X0.07800*%
%ADD15C,0.07800*%
%ADD16R,0.05524X0.05524*%
%ADD17R,0.05918X0.06706*%
%ADD18R,0.06706X0.05918*%
%ADD19C,0.03778*%
D10*
X0038500Y0012000D03*
X0048500Y0012000D03*
X0058500Y0012000D03*
X0068500Y0012000D03*
X0078500Y0012000D03*
D11*
X0082244Y0088500D03*
X0082244Y0102280D03*
X0066496Y0102280D03*
X0066496Y0088500D03*
X0050748Y0088500D03*
X0050748Y0102280D03*
X0035000Y0088500D03*
D12*
X0019252Y0141650D03*
X0097992Y0141650D03*
D13*
X0072314Y0056910D02*
X0072314Y0049420D01*
X0072314Y0056910D02*
X0074686Y0056910D01*
X0074686Y0049420D01*
X0072314Y0049420D01*
X0072314Y0050210D02*
X0074686Y0050210D01*
X0074686Y0051000D02*
X0072314Y0051000D01*
X0072314Y0051790D02*
X0074686Y0051790D01*
X0074686Y0052580D02*
X0072314Y0052580D01*
X0072314Y0053370D02*
X0074686Y0053370D01*
X0074686Y0054160D02*
X0072314Y0054160D01*
X0072314Y0054950D02*
X0074686Y0054950D01*
X0074686Y0055740D02*
X0072314Y0055740D01*
X0072314Y0056530D02*
X0074686Y0056530D01*
X0067314Y0056910D02*
X0067314Y0049420D01*
X0067314Y0056910D02*
X0069686Y0056910D01*
X0069686Y0049420D01*
X0067314Y0049420D01*
X0067314Y0050210D02*
X0069686Y0050210D01*
X0069686Y0051000D02*
X0067314Y0051000D01*
X0067314Y0051790D02*
X0069686Y0051790D01*
X0069686Y0052580D02*
X0067314Y0052580D01*
X0067314Y0053370D02*
X0069686Y0053370D01*
X0069686Y0054160D02*
X0067314Y0054160D01*
X0067314Y0054950D02*
X0069686Y0054950D01*
X0069686Y0055740D02*
X0067314Y0055740D01*
X0067314Y0056530D02*
X0069686Y0056530D01*
X0062314Y0056910D02*
X0062314Y0049420D01*
X0062314Y0056910D02*
X0064686Y0056910D01*
X0064686Y0049420D01*
X0062314Y0049420D01*
X0062314Y0050210D02*
X0064686Y0050210D01*
X0064686Y0051000D02*
X0062314Y0051000D01*
X0062314Y0051790D02*
X0064686Y0051790D01*
X0064686Y0052580D02*
X0062314Y0052580D01*
X0062314Y0053370D02*
X0064686Y0053370D01*
X0064686Y0054160D02*
X0062314Y0054160D01*
X0062314Y0054950D02*
X0064686Y0054950D01*
X0064686Y0055740D02*
X0062314Y0055740D01*
X0062314Y0056530D02*
X0064686Y0056530D01*
X0057314Y0056910D02*
X0057314Y0049420D01*
X0057314Y0056910D02*
X0059686Y0056910D01*
X0059686Y0049420D01*
X0057314Y0049420D01*
X0057314Y0050210D02*
X0059686Y0050210D01*
X0059686Y0051000D02*
X0057314Y0051000D01*
X0057314Y0051790D02*
X0059686Y0051790D01*
X0059686Y0052580D02*
X0057314Y0052580D01*
X0057314Y0053370D02*
X0059686Y0053370D01*
X0059686Y0054160D02*
X0057314Y0054160D01*
X0057314Y0054950D02*
X0059686Y0054950D01*
X0059686Y0055740D02*
X0057314Y0055740D01*
X0057314Y0056530D02*
X0059686Y0056530D01*
X0052314Y0056910D02*
X0052314Y0049420D01*
X0052314Y0056910D02*
X0054686Y0056910D01*
X0054686Y0049420D01*
X0052314Y0049420D01*
X0052314Y0050210D02*
X0054686Y0050210D01*
X0054686Y0051000D02*
X0052314Y0051000D01*
X0052314Y0051790D02*
X0054686Y0051790D01*
X0054686Y0052580D02*
X0052314Y0052580D01*
X0052314Y0053370D02*
X0054686Y0053370D01*
X0054686Y0054160D02*
X0052314Y0054160D01*
X0052314Y0054950D02*
X0054686Y0054950D01*
X0054686Y0055740D02*
X0052314Y0055740D01*
X0052314Y0056530D02*
X0054686Y0056530D01*
X0047314Y0056910D02*
X0047314Y0049420D01*
X0047314Y0056910D02*
X0049686Y0056910D01*
X0049686Y0049420D01*
X0047314Y0049420D01*
X0047314Y0050210D02*
X0049686Y0050210D01*
X0049686Y0051000D02*
X0047314Y0051000D01*
X0047314Y0051790D02*
X0049686Y0051790D01*
X0049686Y0052580D02*
X0047314Y0052580D01*
X0047314Y0053370D02*
X0049686Y0053370D01*
X0049686Y0054160D02*
X0047314Y0054160D01*
X0047314Y0054950D02*
X0049686Y0054950D01*
X0049686Y0055740D02*
X0047314Y0055740D01*
X0047314Y0056530D02*
X0049686Y0056530D01*
X0042314Y0056910D02*
X0042314Y0049420D01*
X0042314Y0056910D02*
X0044686Y0056910D01*
X0044686Y0049420D01*
X0042314Y0049420D01*
X0042314Y0050210D02*
X0044686Y0050210D01*
X0044686Y0051000D02*
X0042314Y0051000D01*
X0042314Y0051790D02*
X0044686Y0051790D01*
X0044686Y0052580D02*
X0042314Y0052580D01*
X0042314Y0053370D02*
X0044686Y0053370D01*
X0044686Y0054160D02*
X0042314Y0054160D01*
X0042314Y0054950D02*
X0044686Y0054950D01*
X0044686Y0055740D02*
X0042314Y0055740D01*
X0042314Y0056530D02*
X0044686Y0056530D01*
X0042314Y0037580D02*
X0042314Y0030090D01*
X0042314Y0037580D02*
X0044686Y0037580D01*
X0044686Y0030090D01*
X0042314Y0030090D01*
X0042314Y0030880D02*
X0044686Y0030880D01*
X0044686Y0031670D02*
X0042314Y0031670D01*
X0042314Y0032460D02*
X0044686Y0032460D01*
X0044686Y0033250D02*
X0042314Y0033250D01*
X0042314Y0034040D02*
X0044686Y0034040D01*
X0044686Y0034830D02*
X0042314Y0034830D01*
X0042314Y0035620D02*
X0044686Y0035620D01*
X0044686Y0036410D02*
X0042314Y0036410D01*
X0042314Y0037200D02*
X0044686Y0037200D01*
X0047314Y0037580D02*
X0047314Y0030090D01*
X0047314Y0037580D02*
X0049686Y0037580D01*
X0049686Y0030090D01*
X0047314Y0030090D01*
X0047314Y0030880D02*
X0049686Y0030880D01*
X0049686Y0031670D02*
X0047314Y0031670D01*
X0047314Y0032460D02*
X0049686Y0032460D01*
X0049686Y0033250D02*
X0047314Y0033250D01*
X0047314Y0034040D02*
X0049686Y0034040D01*
X0049686Y0034830D02*
X0047314Y0034830D01*
X0047314Y0035620D02*
X0049686Y0035620D01*
X0049686Y0036410D02*
X0047314Y0036410D01*
X0047314Y0037200D02*
X0049686Y0037200D01*
X0052314Y0037580D02*
X0052314Y0030090D01*
X0052314Y0037580D02*
X0054686Y0037580D01*
X0054686Y0030090D01*
X0052314Y0030090D01*
X0052314Y0030880D02*
X0054686Y0030880D01*
X0054686Y0031670D02*
X0052314Y0031670D01*
X0052314Y0032460D02*
X0054686Y0032460D01*
X0054686Y0033250D02*
X0052314Y0033250D01*
X0052314Y0034040D02*
X0054686Y0034040D01*
X0054686Y0034830D02*
X0052314Y0034830D01*
X0052314Y0035620D02*
X0054686Y0035620D01*
X0054686Y0036410D02*
X0052314Y0036410D01*
X0052314Y0037200D02*
X0054686Y0037200D01*
X0057314Y0037580D02*
X0057314Y0030090D01*
X0057314Y0037580D02*
X0059686Y0037580D01*
X0059686Y0030090D01*
X0057314Y0030090D01*
X0057314Y0030880D02*
X0059686Y0030880D01*
X0059686Y0031670D02*
X0057314Y0031670D01*
X0057314Y0032460D02*
X0059686Y0032460D01*
X0059686Y0033250D02*
X0057314Y0033250D01*
X0057314Y0034040D02*
X0059686Y0034040D01*
X0059686Y0034830D02*
X0057314Y0034830D01*
X0057314Y0035620D02*
X0059686Y0035620D01*
X0059686Y0036410D02*
X0057314Y0036410D01*
X0057314Y0037200D02*
X0059686Y0037200D01*
X0062314Y0037580D02*
X0062314Y0030090D01*
X0062314Y0037580D02*
X0064686Y0037580D01*
X0064686Y0030090D01*
X0062314Y0030090D01*
X0062314Y0030880D02*
X0064686Y0030880D01*
X0064686Y0031670D02*
X0062314Y0031670D01*
X0062314Y0032460D02*
X0064686Y0032460D01*
X0064686Y0033250D02*
X0062314Y0033250D01*
X0062314Y0034040D02*
X0064686Y0034040D01*
X0064686Y0034830D02*
X0062314Y0034830D01*
X0062314Y0035620D02*
X0064686Y0035620D01*
X0064686Y0036410D02*
X0062314Y0036410D01*
X0062314Y0037200D02*
X0064686Y0037200D01*
X0067314Y0037580D02*
X0067314Y0030090D01*
X0067314Y0037580D02*
X0069686Y0037580D01*
X0069686Y0030090D01*
X0067314Y0030090D01*
X0067314Y0030880D02*
X0069686Y0030880D01*
X0069686Y0031670D02*
X0067314Y0031670D01*
X0067314Y0032460D02*
X0069686Y0032460D01*
X0069686Y0033250D02*
X0067314Y0033250D01*
X0067314Y0034040D02*
X0069686Y0034040D01*
X0069686Y0034830D02*
X0067314Y0034830D01*
X0067314Y0035620D02*
X0069686Y0035620D01*
X0069686Y0036410D02*
X0067314Y0036410D01*
X0067314Y0037200D02*
X0069686Y0037200D01*
X0072314Y0037580D02*
X0072314Y0030090D01*
X0072314Y0037580D02*
X0074686Y0037580D01*
X0074686Y0030090D01*
X0072314Y0030090D01*
X0072314Y0030880D02*
X0074686Y0030880D01*
X0074686Y0031670D02*
X0072314Y0031670D01*
X0072314Y0032460D02*
X0074686Y0032460D01*
X0074686Y0033250D02*
X0072314Y0033250D01*
X0072314Y0034040D02*
X0074686Y0034040D01*
X0074686Y0034830D02*
X0072314Y0034830D01*
X0072314Y0035620D02*
X0074686Y0035620D01*
X0074686Y0036410D02*
X0072314Y0036410D01*
X0072314Y0037200D02*
X0074686Y0037200D01*
D14*
X0088500Y0073500D03*
D15*
X0088500Y0063500D03*
X0088500Y0053500D03*
X0098500Y0053500D03*
X0098500Y0063500D03*
X0098500Y0073500D03*
D16*
X0020134Y0073500D03*
X0020134Y0063500D03*
X0011866Y0063500D03*
X0011866Y0073500D03*
D17*
X0039760Y0068500D03*
X0047240Y0068500D03*
X0057260Y0068500D03*
X0064740Y0068500D03*
D18*
X0033500Y0039760D03*
X0033500Y0047240D03*
D19*
X0033500Y0056000D03*
X0038500Y0058500D03*
X0026000Y0056000D03*
X0018500Y0056000D03*
X0038500Y0023500D03*
X0048500Y0026000D03*
X0048500Y0043500D03*
X0043500Y0043500D03*
X0053500Y0061000D03*
X0058500Y0061000D03*
X0068500Y0061000D03*
X0078500Y0061000D03*
X0081000Y0056000D03*
X0081000Y0046000D03*
X0081000Y0033500D03*
X0063500Y0043500D03*
X0043500Y0076000D03*
X0051000Y0078500D03*
X0038500Y0101000D03*
X0026000Y0093500D03*
X0073500Y0078500D03*
M02*
